<svg width="327" height="84" viewBox="0 0 327 84" fill="none" xmlns="http://www.w3.org/2000/svg">
<rect x="0.5" y="0.5" width="326" height="83" rx="3.5" fill="#F5FFFE"/>
<path d="M163.499 27.9999V36.9999M163.499 27.9999L160.999 29.9999M163.499 27.9999L165.999 29.9999M156.533 25.1169C155.587 25.3549 154.761 25.9301 154.209 26.7344C153.658 27.5387 153.419 28.5167 153.538 29.4847C153.656 30.4528 154.124 31.3442 154.854 31.9914C155.583 32.6387 156.524 32.9974 157.499 32.9999H158.499" stroke="#374151" stroke-width="2" stroke-linecap="round" stroke-linejoin="round"/>
<path d="M167.333 23.138C166.991 21.7845 166.147 20.6117 164.973 19.8572C163.798 19.1027 162.381 18.8231 161.008 19.0749C159.635 19.3267 158.409 20.0911 157.579 21.2133C156.748 22.3355 156.376 23.7313 156.537 25.118C156.537 25.118 156.69 26 157.003 26.5" stroke="#374151" stroke-width="2" stroke-linecap="round" stroke-linejoin="round"/>
<path d="M168.5 33C169.206 32.9995 169.904 32.8495 170.548 32.5599C171.192 32.2702 171.767 31.8475 172.236 31.3195C172.704 30.7915 173.056 30.1702 173.267 29.4965C173.479 28.8229 173.545 28.1121 173.462 27.4109C173.379 26.7098 173.148 26.0343 172.785 25.4287C172.422 24.8232 171.935 24.3014 171.355 23.8978C170.776 23.4941 170.118 23.2177 169.424 23.0868C168.73 22.9558 168.017 22.9733 167.33 23.138L166 23.5" stroke="#374151" stroke-width="2" stroke-linecap="round" stroke-linejoin="round"/>
<path d="M85.249 64H82.107V53.8182H85.3882C86.3759 53.8182 87.2211 54.022 87.9237 54.4297C88.6264 54.834 89.165 55.4157 89.5395 56.1747C89.914 56.9304 90.1013 57.8352 90.1013 58.8892C90.1013 59.9498 89.9124 60.8629 89.5345 61.6286C89.1567 62.3909 88.6065 62.9775 87.884 63.3885C87.1614 63.7962 86.2831 64 85.249 64ZM83.3399 62.9062H85.1695C86.0113 62.9062 86.709 62.7438 87.2625 62.419C87.816 62.0942 88.2287 61.6319 88.5004 61.032C88.7722 60.4321 88.9081 59.7178 88.9081 58.8892C88.9081 58.0672 88.7739 57.3596 88.5054 56.7663C88.2369 56.1697 87.8359 55.7124 87.3023 55.3942C86.7687 55.0727 86.1041 54.9119 85.3087 54.9119H83.3399V62.9062ZM92.0104 64V56.3636H93.1439V57.517H93.2235C93.3627 57.1392 93.6146 56.8326 93.9791 56.5973C94.3437 56.362 94.7547 56.2443 95.2121 56.2443C95.2983 56.2443 95.406 56.246 95.5352 56.2493C95.6645 56.2526 95.7623 56.2576 95.8286 56.2642V57.4574C95.7888 57.4474 95.6977 57.4325 95.5551 57.4126C95.4159 57.3894 95.2684 57.3778 95.1127 57.3778C94.7414 57.3778 94.41 57.4557 94.1183 57.6115C93.83 57.764 93.6013 57.9761 93.4323 58.2479C93.2665 58.5163 93.1837 58.8229 93.1837 59.1676V64H92.0104ZM100.089 64.1591C99.3998 64.1591 98.795 63.995 98.2746 63.6669C97.7575 63.3388 97.3532 62.8797 97.0615 62.2898C96.7732 61.6998 96.629 61.0104 96.629 60.2216C96.629 59.4261 96.7732 58.7318 97.0615 58.1385C97.3532 57.5452 97.7575 57.0845 98.2746 56.7564C98.795 56.4283 99.3998 56.2642 100.089 56.2642C100.779 56.2642 101.382 56.4283 101.899 56.7564C102.419 57.0845 102.824 57.5452 103.112 58.1385C103.404 58.7318 103.549 59.4261 103.549 60.2216C103.549 61.0104 103.404 61.6998 103.112 62.2898C102.824 62.8797 102.419 63.3388 101.899 63.6669C101.382 63.995 100.779 64.1591 100.089 64.1591ZM100.089 63.1051C100.613 63.1051 101.044 62.9709 101.382 62.7024C101.72 62.4339 101.97 62.081 102.133 61.6435C102.295 61.206 102.376 60.732 102.376 60.2216C102.376 59.7112 102.295 59.2356 102.133 58.7947C101.97 58.3539 101.72 57.9976 101.382 57.7259C101.044 57.4541 100.613 57.3182 100.089 57.3182C99.5655 57.3182 99.1347 57.4541 98.7966 57.7259C98.4585 57.9976 98.2083 58.3539 98.0459 58.7947C97.8835 59.2356 97.8023 59.7112 97.8023 60.2216C97.8023 60.732 97.8835 61.206 98.0459 61.6435C98.2083 62.081 98.4585 62.4339 98.7966 62.7024C99.1347 62.9709 99.5655 63.1051 100.089 63.1051ZM105.34 66.8636V56.3636H106.474V57.5767H106.613C106.699 57.4441 106.819 57.2751 106.971 57.0696C107.127 56.8608 107.349 56.6752 107.637 56.5128C107.929 56.3471 108.323 56.2642 108.821 56.2642C109.464 56.2642 110.03 56.425 110.521 56.7464C111.011 57.0679 111.394 57.5237 111.669 58.1136C111.944 58.7036 112.082 59.3996 112.082 60.2017C112.082 61.0104 111.944 61.7114 111.669 62.3047C111.394 62.8946 111.013 63.352 110.526 63.6768C110.039 63.9983 109.477 64.1591 108.84 64.1591C108.35 64.1591 107.957 64.0779 107.662 63.9155C107.367 63.7498 107.14 63.5625 106.981 63.3537C106.822 63.1416 106.699 62.9659 106.613 62.8267H106.514V66.8636H105.34ZM106.494 60.1818C106.494 60.7585 106.578 61.2673 106.747 61.7081C106.916 62.1456 107.163 62.4886 107.488 62.7372C107.813 62.9825 108.211 63.1051 108.681 63.1051C109.172 63.1051 109.581 62.9759 109.909 62.7173C110.241 62.4555 110.489 62.1042 110.655 61.6634C110.824 61.2192 110.909 60.7254 110.909 60.1818C110.909 59.6449 110.826 59.161 110.66 58.7301C110.498 58.2959 110.251 57.9529 109.919 57.701C109.591 57.4458 109.179 57.3182 108.681 57.3182C108.204 57.3182 107.803 57.4392 107.478 57.6811C107.153 57.9197 106.908 58.2545 106.742 58.6854C106.577 59.1129 106.494 59.6117 106.494 60.1818ZM118.565 66.8636C118.366 66.8636 118.189 66.8471 118.033 66.8139C117.877 66.7841 117.769 66.7543 117.71 66.7244L118.008 65.6903C118.293 65.7633 118.545 65.7898 118.764 65.7699C118.983 65.75 119.176 65.6522 119.345 65.4766C119.518 65.3042 119.675 65.0241 119.818 64.6364L120.036 64.0398L117.213 56.3636H118.485L120.593 62.4489H120.673L122.781 56.3636H124.054L120.812 65.1136C120.666 65.508 120.486 65.8345 120.27 66.093C120.055 66.3549 119.804 66.5488 119.519 66.6747C119.238 66.8007 118.92 66.8636 118.565 66.8636ZM128.431 64.1591C127.742 64.1591 127.137 63.995 126.616 63.6669C126.099 63.3388 125.695 62.8797 125.403 62.2898C125.115 61.6998 124.971 61.0104 124.971 60.2216C124.971 59.4261 125.115 58.7318 125.403 58.1385C125.695 57.5452 126.099 57.0845 126.616 56.7564C127.137 56.4283 127.742 56.2642 128.431 56.2642C129.12 56.2642 129.724 56.4283 130.241 56.7564C130.761 57.0845 131.165 57.5452 131.454 58.1385C131.745 58.7318 131.891 59.4261 131.891 60.2216C131.891 61.0104 131.745 61.6998 131.454 62.2898C131.165 62.8797 130.761 63.3388 130.241 63.6669C129.724 63.995 129.12 64.1591 128.431 64.1591ZM128.431 63.1051C128.955 63.1051 129.386 62.9709 129.724 62.7024C130.062 62.4339 130.312 62.081 130.474 61.6435C130.637 61.206 130.718 60.732 130.718 60.2216C130.718 59.7112 130.637 59.2356 130.474 58.7947C130.312 58.3539 130.062 57.9976 129.724 57.7259C129.386 57.4541 128.955 57.3182 128.431 57.3182C127.907 57.3182 127.476 57.4541 127.138 57.7259C126.8 57.9976 126.55 58.3539 126.388 58.7947C126.225 59.2356 126.144 59.7112 126.144 60.2216C126.144 60.732 126.225 61.206 126.388 61.6435C126.55 62.081 126.8 62.4339 127.138 62.7024C127.476 62.9709 127.907 63.1051 128.431 63.1051ZM138.495 60.8778V56.3636H139.668V64H138.495V62.7074H138.415C138.236 63.0952 137.958 63.425 137.58 63.6967C137.202 63.9652 136.725 64.0994 136.148 64.0994C135.671 64.0994 135.247 63.995 134.875 63.7862C134.504 63.5741 134.213 63.2559 134 62.8317C133.788 62.4041 133.682 61.8655 133.682 61.2159V56.3636H134.856V61.1364C134.856 61.6932 135.011 62.1373 135.323 62.4688C135.638 62.8002 136.039 62.9659 136.526 62.9659C136.818 62.9659 137.114 62.8913 137.416 62.7422C137.721 62.593 137.976 62.3643 138.182 62.0561C138.39 61.7479 138.495 61.3551 138.495 60.8778ZM141.817 64V56.3636H142.951V57.517H143.03C143.169 57.1392 143.421 56.8326 143.786 56.5973C144.15 56.362 144.561 56.2443 145.019 56.2443C145.105 56.2443 145.213 56.246 145.342 56.2493C145.471 56.2526 145.569 56.2576 145.635 56.2642V57.4574C145.595 57.4474 145.504 57.4325 145.362 57.4126C145.223 57.3894 145.075 57.3778 144.919 57.3778C144.548 57.3778 144.217 57.4557 143.925 57.6115C143.637 57.764 143.408 57.9761 143.239 58.2479C143.073 58.5163 142.99 58.8229 142.99 59.1676V64H141.817ZM159.196 53.8182V64H158.003L152.455 56.0057H152.356V64H151.123V53.8182H152.316L157.884 61.8324H157.983V53.8182H159.196ZM162.897 53.8182V64H161.664V53.8182H162.897ZM168.511 64H165.369V53.8182H168.65C169.638 53.8182 170.483 54.022 171.185 54.4297C171.888 54.834 172.427 55.4157 172.801 56.1747C173.176 56.9304 173.363 57.8352 173.363 58.8892C173.363 59.9498 173.174 60.8629 172.796 61.6286C172.418 62.3909 171.868 62.9775 171.146 63.3885C170.423 63.7962 169.545 64 168.511 64ZM166.602 62.9062H168.431C169.273 62.9062 169.971 62.7438 170.524 62.419C171.078 62.0942 171.49 61.6319 171.762 61.032C172.034 60.4321 172.17 59.7178 172.17 58.8892C172.17 58.0672 172.036 57.3596 171.767 56.7663C171.499 56.1697 171.098 55.7124 170.564 55.3942C170.03 55.0727 169.366 54.9119 168.57 54.9119H166.602V62.9062ZM182.809 53.3409L179.528 65.5312H178.454L181.735 53.3409H182.809ZM188.296 64V53.8182H191.737C192.536 53.8182 193.188 53.9624 193.696 54.2507C194.206 54.5357 194.584 54.9219 194.829 55.4091C195.074 55.8963 195.197 56.4399 195.197 57.0398C195.197 57.6397 195.074 58.1849 194.829 58.6754C194.587 59.166 194.213 59.5571 193.706 59.8487C193.198 60.1371 192.549 60.2812 191.757 60.2812H189.291V59.1875H191.717C192.264 59.1875 192.703 59.093 193.034 58.9041C193.366 58.7152 193.606 58.46 193.755 58.1385C193.908 57.8137 193.984 57.4474 193.984 57.0398C193.984 56.6321 193.908 56.2675 193.755 55.946C193.606 55.6245 193.364 55.3726 193.029 55.1903C192.695 55.0047 192.251 54.9119 191.697 54.9119H189.529V64H188.296ZM199.271 64.179C198.787 64.179 198.348 64.0878 197.954 63.9055C197.559 63.7199 197.246 63.4531 197.014 63.1051C196.782 62.7538 196.666 62.3295 196.666 61.8324C196.666 61.3949 196.752 61.0402 196.925 60.7685C197.097 60.4934 197.327 60.2779 197.616 60.1222C197.904 59.9664 198.222 59.8504 198.57 59.7741C198.922 59.6946 199.275 59.6316 199.629 59.5852C200.093 59.5256 200.469 59.4808 200.758 59.451C201.049 59.4179 201.262 59.3632 201.394 59.2869C201.53 59.2107 201.598 59.0781 201.598 58.8892V58.8494C201.598 58.3589 201.464 57.9777 201.195 57.706C200.93 57.4342 200.527 57.2983 199.987 57.2983C199.427 57.2983 198.988 57.4209 198.67 57.6662C198.351 57.9115 198.128 58.1733 197.998 58.4517L196.885 58.054C197.084 57.59 197.349 57.2287 197.68 56.9702C198.015 56.7083 198.38 56.526 198.774 56.4233C199.172 56.3172 199.563 56.2642 199.947 56.2642C200.193 56.2642 200.474 56.294 200.793 56.3537C201.114 56.41 201.424 56.5277 201.722 56.7067C202.024 56.8857 202.274 57.1558 202.473 57.517C202.672 57.8783 202.771 58.3622 202.771 58.9688V64H201.598V62.9659H201.538C201.459 63.1316 201.326 63.3089 201.141 63.4979C200.955 63.6868 200.708 63.8475 200.4 63.9801C200.092 64.1127 199.715 64.179 199.271 64.179ZM199.45 63.125C199.914 63.125 200.305 63.0339 200.623 62.8516C200.945 62.6693 201.187 62.4339 201.349 62.1456C201.515 61.8572 201.598 61.554 201.598 61.2358V60.1619C201.548 60.2216 201.439 60.2763 201.27 60.326C201.104 60.3724 200.912 60.4138 200.693 60.4503C200.478 60.4834 200.267 60.5133 200.062 60.5398C199.86 60.563 199.695 60.5829 199.57 60.5994C199.265 60.6392 198.98 60.7038 198.714 60.7933C198.453 60.8795 198.24 61.0104 198.078 61.1861C197.919 61.3584 197.839 61.5937 197.839 61.892C197.839 62.2997 197.99 62.608 198.292 62.8168C198.597 63.0223 198.983 63.125 199.45 63.125ZM210.322 58.0739L209.268 58.3722C209.202 58.1965 209.104 58.0258 208.975 57.8601C208.849 57.6911 208.676 57.5518 208.457 57.4425C208.239 57.3331 207.959 57.2784 207.617 57.2784C207.15 57.2784 206.761 57.3861 206.449 57.6016C206.141 57.8137 205.987 58.0838 205.987 58.4119C205.987 58.7036 206.093 58.9339 206.305 59.103C206.517 59.272 206.848 59.4129 207.299 59.5256L208.433 59.804C209.115 59.9697 209.624 60.2232 209.959 60.5646C210.294 60.9027 210.461 61.3385 210.461 61.8722C210.461 62.3097 210.335 62.7008 210.083 63.0455C209.835 63.3902 209.487 63.6619 209.039 63.8608C208.592 64.0597 208.071 64.1591 207.478 64.1591C206.699 64.1591 206.055 63.9901 205.544 63.652C205.034 63.3139 204.711 62.8201 204.575 62.1705L205.688 61.892C205.794 62.303 205.995 62.6113 206.29 62.8168C206.588 63.0223 206.978 63.125 207.458 63.125C208.005 63.125 208.439 63.009 208.761 62.777C209.086 62.5417 209.248 62.2599 209.248 61.9318C209.248 61.6667 209.155 61.4446 208.97 61.2656C208.784 61.0833 208.499 60.9474 208.114 60.858L206.842 60.5597C206.142 60.3939 205.629 60.1371 205.301 59.7891C204.976 59.4377 204.813 58.9986 204.813 58.4716C204.813 58.0407 204.934 57.6596 205.176 57.3281C205.421 56.9967 205.755 56.7365 206.176 56.5476C206.6 56.3587 207.08 56.2642 207.617 56.2642C208.373 56.2642 208.966 56.4299 209.397 56.7614C209.831 57.0928 210.14 57.5303 210.322 58.0739ZM217.636 58.0739L216.582 58.3722C216.516 58.1965 216.418 58.0258 216.289 57.8601C216.163 57.6911 215.991 57.5518 215.772 57.4425C215.553 57.3331 215.273 57.2784 214.932 57.2784C214.464 57.2784 214.075 57.3861 213.763 57.6016C213.455 57.8137 213.301 58.0838 213.301 58.4119C213.301 58.7036 213.407 58.9339 213.619 59.103C213.831 59.272 214.163 59.4129 214.614 59.5256L215.747 59.804C216.43 59.9697 216.939 60.2232 217.273 60.5646C217.608 60.9027 217.775 61.3385 217.775 61.8722C217.775 62.3097 217.65 62.7008 217.398 63.0455C217.149 63.3902 216.801 63.6619 216.354 63.8608C215.906 64.0597 215.386 64.1591 214.793 64.1591C214.014 64.1591 213.369 63.9901 212.859 63.652C212.348 63.3139 212.025 62.8201 211.889 62.1705L213.003 61.892C213.109 62.303 213.309 62.6113 213.604 62.8168C213.903 63.0223 214.292 63.125 214.773 63.125C215.32 63.125 215.754 63.009 216.075 62.777C216.4 62.5417 216.562 62.2599 216.562 61.9318C216.562 61.6667 216.47 61.4446 216.284 61.2656C216.098 61.0833 215.813 60.9474 215.429 60.858L214.156 60.5597C213.457 60.3939 212.943 60.1371 212.615 59.7891C212.29 59.4377 212.128 58.9986 212.128 58.4716C212.128 58.0407 212.249 57.6596 212.491 57.3281C212.736 56.9967 213.069 56.7365 213.49 56.5476C213.914 56.3587 214.395 56.2642 214.932 56.2642C215.687 56.2642 216.281 56.4299 216.712 56.7614C217.146 57.0928 217.454 57.5303 217.636 58.0739ZM219.542 66.8636V56.3636H220.675V57.5767H220.814C220.901 57.4441 221.02 57.2751 221.172 57.0696C221.328 56.8608 221.55 56.6752 221.839 56.5128C222.13 56.3471 222.525 56.2642 223.022 56.2642C223.665 56.2642 224.232 56.425 224.722 56.7464C225.213 57.0679 225.595 57.5237 225.87 58.1136C226.146 58.7036 226.283 59.3996 226.283 60.2017C226.283 61.0104 226.146 61.7114 225.87 62.3047C225.595 62.8946 225.214 63.352 224.727 63.6768C224.24 63.9983 223.678 64.1591 223.042 64.1591C222.551 64.1591 222.158 64.0779 221.863 63.9155C221.568 63.7498 221.341 63.5625 221.182 63.3537C221.023 63.1416 220.901 62.9659 220.814 62.8267H220.715V66.8636H219.542ZM220.695 60.1818C220.695 60.7585 220.78 61.2673 220.949 61.7081C221.118 62.1456 221.365 62.4886 221.689 62.7372C222.014 62.9825 222.412 63.1051 222.883 63.1051C223.373 63.1051 223.782 62.9759 224.111 62.7173C224.442 62.4555 224.691 62.1042 224.856 61.6634C225.025 61.2192 225.11 60.7254 225.11 60.1818C225.11 59.6449 225.027 59.161 224.861 58.7301C224.699 58.2959 224.452 57.9529 224.12 57.701C223.792 57.4458 223.38 57.3182 222.883 57.3182C222.405 57.3182 222.004 57.4392 221.679 57.6811C221.355 57.9197 221.109 58.2545 220.944 58.6854C220.778 59.1129 220.695 59.6117 220.695 60.1818ZM231.175 64.1591C230.486 64.1591 229.881 63.995 229.361 63.6669C228.843 63.3388 228.439 62.8797 228.147 62.2898C227.859 61.6998 227.715 61.0104 227.715 60.2216C227.715 59.4261 227.859 58.7318 228.147 58.1385C228.439 57.5452 228.843 57.0845 229.361 56.7564C229.881 56.4283 230.486 56.2642 231.175 56.2642C231.865 56.2642 232.468 56.4283 232.985 56.7564C233.505 57.0845 233.91 57.5452 234.198 58.1385C234.49 58.7318 234.635 59.4261 234.635 60.2216C234.635 61.0104 234.49 61.6998 234.198 62.2898C233.91 62.8797 233.505 63.3388 232.985 63.6669C232.468 63.995 231.865 64.1591 231.175 64.1591ZM231.175 63.1051C231.699 63.1051 232.13 62.9709 232.468 62.7024C232.806 62.4339 233.056 62.081 233.218 61.6435C233.381 61.206 233.462 60.732 233.462 60.2216C233.462 59.7112 233.381 59.2356 233.218 58.7947C233.056 58.3539 232.806 57.9976 232.468 57.7259C232.13 57.4541 231.699 57.3182 231.175 57.3182C230.651 57.3182 230.221 57.4541 229.883 57.7259C229.544 57.9976 229.294 58.3539 229.132 58.7947C228.969 59.2356 228.888 59.7112 228.888 60.2216C228.888 60.732 228.969 61.206 229.132 61.6435C229.294 62.081 229.544 62.4339 229.883 62.7024C230.221 62.9709 230.651 63.1051 231.175 63.1051ZM236.426 64V56.3636H237.56V57.517H237.639C237.779 57.1392 238.031 56.8326 238.395 56.5973C238.76 56.362 239.171 56.2443 239.628 56.2443C239.714 56.2443 239.822 56.246 239.951 56.2493C240.081 56.2526 240.178 56.2576 240.245 56.2642V57.4574C240.205 57.4474 240.114 57.4325 239.971 57.4126C239.832 57.3894 239.684 57.3778 239.529 57.3778C239.157 57.3778 238.826 57.4557 238.534 57.6115C238.246 57.764 238.017 57.9761 237.848 58.2479C237.683 58.5163 237.6 58.8229 237.6 59.1676V64H236.426ZM245.435 56.3636V57.358H241.478V56.3636H245.435ZM242.631 54.5341H243.804V61.8125C243.804 62.1439 243.852 62.3925 243.948 62.5582C244.048 62.7206 244.174 62.83 244.326 62.8864C244.482 62.9394 244.646 62.9659 244.818 62.9659C244.948 62.9659 245.054 62.9593 245.137 62.946C245.219 62.9295 245.286 62.9162 245.335 62.9062L245.574 63.9602C245.495 63.9901 245.384 64.0199 245.241 64.0497C245.099 64.0829 244.918 64.0994 244.699 64.0994C244.368 64.0994 244.043 64.0282 243.725 63.8857C243.41 63.7431 243.148 63.526 242.939 63.2344C242.734 62.9427 242.631 62.5748 242.631 62.1307V54.5341Z" fill="#374151"/>
<rect x="0.5" y="0.5" width="326" height="83" rx="3.5" stroke="#00CCBB" stroke-dasharray="4 4"/>
</svg>
