<svg width="327" height="88" viewBox="0 0 327 88" fill="none" xmlns="http://www.w3.org/2000/svg">
<rect x="0.5" y="0.5" width="326" height="87" rx="3.5" fill="#F5FFFE"/>
<g clip-path="url(#clip0_3042_18395)">
<path d="M160 25.625C160 26.3212 159.723 26.9889 159.231 27.4812C158.739 27.9734 158.071 28.25 157.375 28.25C156.679 28.25 156.011 27.9734 155.519 27.4812C155.027 26.9889 154.75 26.3212 154.75 25.625C154.75 24.9288 155.027 24.2611 155.519 23.7688C156.011 23.2766 156.679 23 157.375 23C158.071 23 158.739 23.2766 159.231 23.7688C159.723 24.2611 160 24.9288 160 25.625Z" fill="#00A396"/>
<path d="M153 17.75C152.072 17.75 151.182 18.1187 150.525 18.7751C149.869 19.4315 149.5 20.3217 149.5 21.25V38.75C149.5 39.6783 149.869 40.5685 150.525 41.2249C151.182 41.8813 152.072 42.25 153 42.25H174C174.928 42.25 175.818 41.8813 176.475 41.2249C177.131 40.5685 177.5 39.6783 177.5 38.75V21.25C177.5 20.3217 177.131 19.4315 176.475 18.7751C175.818 18.1187 174.928 17.75 174 17.75H153ZM174 19.5C174.464 19.5 174.909 19.6844 175.237 20.0126C175.566 20.3408 175.75 20.7859 175.75 21.25V32.625L169.14 29.2177C168.976 29.1355 168.79 29.107 168.609 29.1362C168.428 29.1654 168.26 29.2509 168.131 29.3805L161.638 35.873L156.983 32.772C156.815 32.6601 156.613 32.6098 156.412 32.6296C156.211 32.6493 156.024 32.738 155.88 32.8805L151.25 37V21.25C151.25 20.7859 151.434 20.3408 151.763 20.0126C152.091 19.6844 152.536 19.5 153 19.5H174Z" fill="#00A396"/>
</g>
<path d="M113.338 68H110.196V57.8182H113.477C114.465 57.8182 115.31 58.022 116.013 58.4297C116.715 58.834 117.254 59.4157 117.628 60.1747C118.003 60.9304 118.19 61.8352 118.19 62.8892C118.19 63.9498 118.001 64.8629 117.623 65.6286C117.246 66.3909 116.695 66.9775 115.973 67.3885C115.25 67.7962 114.372 68 113.338 68ZM111.429 66.9062H113.258C114.1 66.9062 114.798 66.7438 115.351 66.419C115.905 66.0942 116.318 65.6319 116.589 65.032C116.861 64.4321 116.997 63.7178 116.997 62.8892C116.997 62.0672 116.863 61.3596 116.594 60.7663C116.326 60.1697 115.925 59.7124 115.391 59.3942C114.858 59.0727 114.193 58.9119 113.398 58.9119H111.429V66.9062ZM120.099 68V60.3636H121.233V61.517H121.312C121.452 61.1392 121.703 60.8326 122.068 60.5973C122.433 60.362 122.844 60.2443 123.301 60.2443C123.387 60.2443 123.495 60.246 123.624 60.2493C123.753 60.2526 123.851 60.2576 123.917 60.2642V61.4574C123.878 61.4474 123.787 61.4325 123.644 61.4126C123.505 61.3894 123.357 61.3778 123.202 61.3778C122.83 61.3778 122.499 61.4557 122.207 61.6115C121.919 61.764 121.69 61.9761 121.521 62.2479C121.355 62.5163 121.273 62.8229 121.273 63.1676V68H120.099ZM128.178 68.1591C127.489 68.1591 126.884 67.995 126.363 67.6669C125.846 67.3388 125.442 66.8797 125.15 66.2898C124.862 65.6998 124.718 65.0104 124.718 64.2216C124.718 63.4261 124.862 62.7318 125.15 62.1385C125.442 61.5452 125.846 61.0845 126.363 60.7564C126.884 60.4283 127.489 60.2642 128.178 60.2642C128.867 60.2642 129.471 60.4283 129.988 60.7564C130.508 61.0845 130.912 61.5452 131.201 62.1385C131.492 62.7318 131.638 63.4261 131.638 64.2216C131.638 65.0104 131.492 65.6998 131.201 66.2898C130.912 66.8797 130.508 67.3388 129.988 67.6669C129.471 67.995 128.867 68.1591 128.178 68.1591ZM128.178 67.1051C128.702 67.1051 129.133 66.9709 129.471 66.7024C129.809 66.4339 130.059 66.081 130.221 65.6435C130.384 65.206 130.465 64.732 130.465 64.2216C130.465 63.7112 130.384 63.2356 130.221 62.7947C130.059 62.3539 129.809 61.9976 129.471 61.7259C129.133 61.4541 128.702 61.3182 128.178 61.3182C127.654 61.3182 127.224 61.4541 126.885 61.7259C126.547 61.9976 126.297 62.3539 126.135 62.7947C125.972 63.2356 125.891 63.7112 125.891 64.2216C125.891 64.732 125.972 65.206 126.135 65.6435C126.297 66.081 126.547 66.4339 126.885 66.7024C127.224 66.9709 127.654 67.1051 128.178 67.1051ZM133.429 70.8636V60.3636H134.563V61.5767H134.702C134.788 61.4441 134.908 61.2751 135.06 61.0696C135.216 60.8608 135.438 60.6752 135.726 60.5128C136.018 60.3471 136.412 60.2642 136.909 60.2642C137.552 60.2642 138.119 60.425 138.61 60.7464C139.1 61.0679 139.483 61.5237 139.758 62.1136C140.033 62.7036 140.171 63.3996 140.171 64.2017C140.171 65.0104 140.033 65.7114 139.758 66.3047C139.483 66.8946 139.102 67.352 138.615 67.6768C138.127 67.9983 137.566 68.1591 136.929 68.1591C136.439 68.1591 136.046 68.0779 135.751 67.9155C135.456 67.7498 135.229 67.5625 135.07 67.3537C134.911 67.1416 134.788 66.9659 134.702 66.8267H134.603V70.8636H133.429ZM134.583 64.1818C134.583 64.7585 134.667 65.2673 134.836 65.7081C135.005 66.1456 135.252 66.4886 135.577 66.7372C135.902 66.9825 136.3 67.1051 136.77 67.1051C137.261 67.1051 137.67 66.9759 137.998 66.7173C138.33 66.4555 138.578 66.1042 138.744 65.6634C138.913 65.2192 138.998 64.7254 138.998 64.1818C138.998 63.6449 138.915 63.161 138.749 62.7301C138.587 62.2959 138.34 61.9529 138.008 61.701C137.68 61.4458 137.267 61.3182 136.77 61.3182C136.293 61.3182 135.892 61.4392 135.567 61.6811C135.242 61.9197 134.997 62.2545 134.831 62.6854C134.666 63.1129 134.583 63.6117 134.583 64.1818ZM146.654 70.8636C146.455 70.8636 146.278 70.8471 146.122 70.8139C145.966 70.7841 145.858 70.7543 145.799 70.7244L146.097 69.6903C146.382 69.7633 146.634 69.7898 146.853 69.7699C147.071 69.75 147.265 69.6522 147.434 69.4766C147.607 69.3042 147.764 69.0241 147.907 68.6364L148.125 68.0398L145.301 60.3636H146.574L148.682 66.4489H148.762L150.87 60.3636H152.142L148.901 69.1136C148.755 69.508 148.574 69.8345 148.359 70.093C148.144 70.3549 147.893 70.5488 147.608 70.6747C147.327 70.8007 147.008 70.8636 146.654 70.8636ZM156.52 68.1591C155.83 68.1591 155.226 67.995 154.705 67.6669C154.188 67.3388 153.784 66.8797 153.492 66.2898C153.204 65.6998 153.06 65.0104 153.06 64.2216C153.06 63.4261 153.204 62.7318 153.492 62.1385C153.784 61.5452 154.188 61.0845 154.705 60.7564C155.226 60.4283 155.83 60.2642 156.52 60.2642C157.209 60.2642 157.813 60.4283 158.33 60.7564C158.85 61.0845 159.254 61.5452 159.543 62.1385C159.834 62.7318 159.98 63.4261 159.98 64.2216C159.98 65.0104 159.834 65.6998 159.543 66.2898C159.254 66.8797 158.85 67.3388 158.33 67.6669C157.813 67.995 157.209 68.1591 156.52 68.1591ZM156.52 67.1051C157.044 67.1051 157.474 66.9709 157.812 66.7024C158.151 66.4339 158.401 66.081 158.563 65.6435C158.726 65.206 158.807 64.732 158.807 64.2216C158.807 63.7112 158.726 63.2356 158.563 62.7947C158.401 62.3539 158.151 61.9976 157.812 61.7259C157.474 61.4541 157.044 61.3182 156.52 61.3182C155.996 61.3182 155.565 61.4541 155.227 61.7259C154.889 61.9976 154.639 62.3539 154.477 62.7947C154.314 63.2356 154.233 63.7112 154.233 64.2216C154.233 64.732 154.314 65.206 154.477 65.6435C154.639 66.081 154.889 66.4339 155.227 66.7024C155.565 66.9709 155.996 67.1051 156.52 67.1051ZM166.584 64.8778V60.3636H167.757V68H166.584V66.7074H166.504C166.325 67.0952 166.047 67.425 165.669 67.6967C165.291 67.9652 164.814 68.0994 164.237 68.0994C163.76 68.0994 163.336 67.995 162.964 67.7862C162.593 67.5741 162.301 67.2559 162.089 66.8317C161.877 66.4041 161.771 65.8655 161.771 65.2159V60.3636H162.944V65.1364C162.944 65.6932 163.1 66.1373 163.412 66.4688C163.727 66.8002 164.128 66.9659 164.615 66.9659C164.907 66.9659 165.203 66.8913 165.505 66.7422C165.81 66.593 166.065 66.3643 166.27 66.0561C166.479 65.7479 166.584 65.3551 166.584 64.8778ZM169.906 68V60.3636H171.039V61.517H171.119C171.258 61.1392 171.51 60.8326 171.875 60.5973C172.239 60.362 172.65 60.2443 173.108 60.2443C173.194 60.2443 173.301 60.246 173.431 60.2493C173.56 60.2526 173.658 60.2576 173.724 60.2642V61.4574C173.684 61.4474 173.593 61.4325 173.451 61.4126C173.311 61.3894 173.164 61.3778 173.008 61.3778C172.637 61.3778 172.306 61.4557 172.014 61.6115C171.725 61.764 171.497 61.9761 171.328 62.2479C171.162 62.5163 171.079 62.8229 171.079 63.1676V68H169.906ZM179.052 68V60.3636H180.226V68H179.052ZM179.649 59.0909C179.42 59.0909 179.223 59.013 179.057 58.8572C178.895 58.7015 178.814 58.5142 178.814 58.2955C178.814 58.0767 178.895 57.8894 179.057 57.7337C179.223 57.5779 179.42 57.5 179.649 57.5C179.878 57.5 180.073 57.5779 180.236 57.7337C180.401 57.8894 180.484 58.0767 180.484 58.2955C180.484 58.5142 180.401 58.7015 180.236 58.8572C180.073 59.013 179.878 59.0909 179.649 59.0909ZM182.375 68V60.3636H183.508V61.5568H183.608C183.767 61.1491 184.024 60.8326 184.378 60.6072C184.733 60.3786 185.159 60.2642 185.656 60.2642C186.16 60.2642 186.579 60.3786 186.914 60.6072C187.252 60.8326 187.515 61.1491 187.704 61.5568H187.784C187.979 61.1624 188.273 60.8492 188.664 60.6172C189.055 60.3819 189.524 60.2642 190.071 60.2642C190.753 60.2642 191.312 60.478 191.746 60.9055C192.18 61.3298 192.397 61.991 192.397 62.8892V68H191.224V62.8892C191.224 62.3258 191.07 61.9231 190.762 61.6811C190.453 61.4392 190.091 61.3182 189.673 61.3182C189.136 61.3182 188.72 61.4806 188.425 61.8054C188.13 62.1269 187.983 62.5346 187.983 63.0284V68H186.789V62.7699C186.789 62.3357 186.649 61.986 186.367 61.7209C186.085 61.4524 185.722 61.3182 185.278 61.3182C184.973 61.3182 184.688 61.3994 184.423 61.5618C184.161 61.7242 183.949 61.9496 183.787 62.2379C183.627 62.523 183.548 62.8527 183.548 63.2273V68H182.375ZM196.79 68.179C196.306 68.179 195.867 68.0878 195.472 67.9055C195.078 67.7199 194.765 67.4531 194.533 67.1051C194.301 66.7538 194.185 66.3295 194.185 65.8324C194.185 65.3949 194.271 65.0402 194.443 64.7685C194.616 64.4934 194.846 64.2779 195.134 64.1222C195.423 63.9664 195.741 63.8504 196.089 63.7741C196.44 63.6946 196.793 63.6316 197.148 63.5852C197.612 63.5256 197.988 63.4808 198.276 63.451C198.568 63.4179 198.78 63.3632 198.913 63.2869C199.049 63.2107 199.116 63.0781 199.116 62.8892V62.8494C199.116 62.3589 198.982 61.9777 198.714 61.706C198.449 61.4342 198.046 61.2983 197.506 61.2983C196.946 61.2983 196.506 61.4209 196.188 61.6662C195.87 61.9115 195.646 62.1733 195.517 62.4517L194.403 62.054C194.602 61.59 194.867 61.2287 195.199 60.9702C195.534 60.7083 195.898 60.526 196.293 60.4233C196.69 60.3172 197.081 60.2642 197.466 60.2642C197.711 60.2642 197.993 60.294 198.311 60.3537C198.633 60.41 198.942 60.5277 199.241 60.7067C199.542 60.8857 199.793 61.1558 199.991 61.517C200.19 61.8783 200.29 62.3622 200.29 62.9688V68H199.116V66.9659H199.057C198.977 67.1316 198.845 67.3089 198.659 67.4979C198.473 67.6868 198.227 67.8475 197.918 67.9801C197.61 68.1127 197.234 68.179 196.79 68.179ZM196.969 67.125C197.433 67.125 197.824 67.0339 198.142 66.8516C198.464 66.6693 198.705 66.4339 198.868 66.1456C199.034 65.8572 199.116 65.554 199.116 65.2358V64.1619C199.067 64.2216 198.957 64.2763 198.788 64.326C198.623 64.3724 198.43 64.4138 198.212 64.4503C197.996 64.4834 197.786 64.5133 197.58 64.5398C197.378 64.563 197.214 64.5829 197.088 64.5994C196.783 64.6392 196.498 64.7038 196.233 64.7933C195.971 64.8795 195.759 65.0104 195.597 65.1861C195.438 65.3584 195.358 65.5937 195.358 65.892C195.358 66.2997 195.509 66.608 195.81 66.8168C196.115 67.0223 196.501 67.125 196.969 67.125ZM205.514 71.0227C204.947 71.0227 204.46 70.9498 204.052 70.804C203.644 70.6615 203.305 70.4725 203.033 70.2372C202.764 70.0052 202.551 69.7566 202.392 69.4915L203.326 68.8352C203.432 68.9744 203.566 69.1335 203.729 69.3125C203.891 69.4948 204.113 69.6522 204.395 69.7848C204.68 69.9207 205.053 69.9886 205.514 69.9886C206.13 69.9886 206.639 69.8395 207.04 69.5412C207.441 69.2429 207.642 68.7756 207.642 68.1392V66.5881H207.542C207.456 66.7273 207.333 66.8996 207.174 67.1051C207.018 67.3073 206.793 67.4879 206.498 67.647C206.206 67.8028 205.812 67.8807 205.315 67.8807C204.698 67.8807 204.145 67.7348 203.654 67.4432C203.167 67.1515 202.781 66.7273 202.496 66.1705C202.214 65.6136 202.073 64.9375 202.073 64.142C202.073 63.3598 202.211 62.6787 202.486 62.0987C202.761 61.5154 203.144 61.0646 203.634 60.7464C204.125 60.425 204.692 60.2642 205.335 60.2642C205.832 60.2642 206.226 60.3471 206.518 60.5128C206.813 60.6752 207.038 60.8608 207.194 61.0696C207.353 61.2751 207.476 61.4441 207.562 61.5767H207.681V60.3636H208.815V68.2188C208.815 68.875 208.666 69.4086 208.367 69.8196C208.072 70.2339 207.675 70.5372 207.174 70.7294C206.677 70.925 206.124 71.0227 205.514 71.0227ZM205.474 66.8267C205.945 66.8267 206.342 66.719 206.667 66.5036C206.992 66.2881 207.239 65.9782 207.408 65.5739C207.577 65.1695 207.661 64.6856 207.661 64.1222C207.661 63.572 207.579 63.0864 207.413 62.6655C207.247 62.2446 207.002 61.9148 206.677 61.6761C206.352 61.4375 205.951 61.3182 205.474 61.3182C204.977 61.3182 204.562 61.4441 204.231 61.696C203.903 61.9479 203.656 62.286 203.49 62.7102C203.328 63.1345 203.247 63.6051 203.247 64.1222C203.247 64.6525 203.329 65.1214 203.495 65.5291C203.664 65.9335 203.913 66.2517 204.241 66.4837C204.572 66.7124 204.983 66.8267 205.474 66.8267ZM214.164 68.1591C213.428 68.1591 212.794 67.9967 212.26 67.6719C211.73 67.3438 211.32 66.8864 211.032 66.2997C210.747 65.7098 210.605 65.0237 210.605 64.2415C210.605 63.4593 210.747 62.7699 211.032 62.1733C211.32 61.5734 211.722 61.1061 212.235 60.7713C212.752 60.4332 213.356 60.2642 214.045 60.2642C214.443 60.2642 214.835 60.3305 215.223 60.4631C215.611 60.5956 215.964 60.8111 216.282 61.1094C216.6 61.4044 216.854 61.7955 217.043 62.2827C217.232 62.7699 217.326 63.3698 217.326 64.0824V64.5795H211.44V63.5653H216.133C216.133 63.1345 216.047 62.75 215.874 62.4119C215.705 62.0739 215.463 61.8071 215.149 61.6115C214.837 61.416 214.469 61.3182 214.045 61.3182C213.578 61.3182 213.173 61.4342 212.832 61.6662C212.494 61.8949 212.234 62.1932 212.051 62.5611C211.869 62.929 211.778 63.3234 211.778 63.7443V64.4205C211.778 64.9972 211.877 65.486 212.076 65.8871C212.278 66.2848 212.558 66.5881 212.916 66.7969C213.274 67.0024 213.69 67.1051 214.164 67.1051C214.472 67.1051 214.751 67.062 214.999 66.9759C215.251 66.8864 215.468 66.7538 215.651 66.5781C215.833 66.3991 215.974 66.1771 216.073 65.9119L217.207 66.2301C217.088 66.6146 216.887 66.9527 216.605 67.2443C216.324 67.5327 215.976 67.758 215.561 67.9205C215.147 68.0795 214.681 68.1591 214.164 68.1591Z" fill="#374151"/>
<rect x="0.5" y="0.5" width="326" height="87" rx="3.5" stroke="#00CCBB" stroke-dasharray="4 4"/>
<defs>
<clipPath id="clip0_3042_18395">
<rect width="28" height="28" fill="white" transform="translate(149.5 16)"/>
</clipPath>
</defs>
</svg>
