<svg width="112" height="84" viewBox="0 0 112 84" fill="none" xmlns="http://www.w3.org/2000/svg">
<rect x="0.5" y="0.5" width="111" height="83" rx="3.5" fill="white" stroke="#DFDFDF"/>
<path d="M69.9545 28.4425V25.1252C69.9551 24.7588 69.882 24.3958 69.7395 24.0572C69.5969 23.7186 69.3877 23.4109 69.1239 23.1517C68.86 22.8926 68.5467 22.6872 68.2018 22.5472C67.857 22.4072 67.4874 22.3355 67.1142 22.336H65.2667L50.1689 16.1617C49.9122 16.0553 49.6364 16.0003 49.3578 16C49.0791 15.9997 48.8032 16.0542 48.5463 16.1601C48.2893 16.2661 48.0566 16.4215 47.8617 16.6171C47.6668 16.8127 47.5137 17.0446 47.4114 17.2991L45.357 22.336H43.8403C43.4672 22.3355 43.0976 22.4072 42.7527 22.5472C42.4079 22.6872 42.0945 22.8926 41.8307 23.1517C41.5668 23.4109 41.3576 23.7186 41.2151 24.0572C41.0726 24.3958 40.9995 24.7588 41 25.1252V41.2108C40.9995 41.5772 41.0726 41.9401 41.2151 42.2788C41.3576 42.6174 41.5668 42.9251 41.8307 43.1842C42.0945 43.4433 42.4079 43.6488 42.7527 43.7888C43.0976 43.9287 43.4672 44.0005 43.8403 44H67.1142C67.4874 44.0005 67.857 43.9287 68.2018 43.7888C68.5467 43.6488 68.86 43.4433 69.1239 43.1842C69.3877 42.9251 69.5969 42.6174 69.7395 42.2788C69.882 41.9401 69.9551 41.5772 69.9545 41.2108V37.8935C70.3233 37.8809 70.6728 37.7286 70.9298 37.4687C71.1868 37.2087 71.3314 36.8612 71.3333 36.4988V29.8372C71.3314 29.4748 71.1868 29.1273 70.9298 28.8673C70.6728 28.6073 70.3233 28.4551 69.9545 28.4425ZM48.6936 17.8001C48.7267 17.7119 48.7781 17.6315 48.8446 17.5639C48.9111 17.4963 48.9911 17.443 49.0797 17.4074C49.2571 17.3398 49.4538 17.3398 49.6312 17.4074L61.6818 22.336H58.3452L50.1827 19.6686C50.0143 19.611 49.8298 19.6198 49.6678 19.693C49.5059 19.7662 49.3791 19.8982 49.3141 20.0613L48.4179 22.336H46.8461L48.6936 17.8001ZM53.9882 22.336H49.907L50.362 21.158L53.9882 22.336ZM68.5758 41.2108C68.5754 41.5913 68.4213 41.9561 68.1473 42.2252C67.8733 42.4943 67.5018 42.6456 67.1142 42.646H43.8403C43.4528 42.6456 43.0813 42.4943 42.8073 42.2252C42.5333 41.9561 42.3792 41.5913 42.3788 41.2108V25.1252C42.3813 24.7453 42.5361 24.3817 42.8097 24.1131C43.0832 23.8445 43.4535 23.6925 43.8403 23.69H67.1142C67.5011 23.6925 67.8714 23.8445 68.1449 24.1131C68.4184 24.3817 68.5732 24.7453 68.5758 25.1252V28.429H62.3712C61.0913 28.429 59.8639 28.9283 58.9589 29.817C58.0539 30.7057 57.5455 31.9111 57.5455 33.168C57.5455 34.4249 58.0539 35.6302 58.9589 36.519C59.8639 37.4077 61.0913 37.907 62.3712 37.907H68.5758V41.2108ZM69.9545 36.4988C69.9536 36.5129 69.9475 36.5261 69.9373 36.5361C69.9272 36.546 69.9137 36.552 69.8994 36.553H62.3712C61.457 36.553 60.5803 36.1964 59.9338 35.5615C59.2874 34.9267 58.9242 34.0658 58.9242 33.168C58.9242 32.2702 59.2874 31.4092 59.9338 30.7744C60.5803 30.1396 61.457 29.783 62.3712 29.783L69.9545 29.8372V36.4988Z" fill="#303754"/>
<path d="M62.3723 28.4287H68.5769V25.1249C68.5743 24.7451 68.4195 24.3814 68.146 24.1128C67.8724 23.8442 67.5022 23.6922 67.1153 23.6897H43.8414C43.4546 23.6922 43.0843 23.8442 42.8107 24.1128C42.5372 24.3814 42.3824 24.7451 42.3799 25.1249V41.2105C42.3802 41.591 42.5343 41.9559 42.8084 42.2249C43.0824 42.494 43.4539 42.6453 43.8414 42.6457H67.1153C67.5028 42.6453 67.8744 42.494 68.1484 42.2249C68.4224 41.9559 68.5765 41.591 68.5769 41.2105V37.9067H62.3723C61.0924 37.9067 59.865 37.4074 58.96 36.5187C58.055 35.6299 57.5465 34.4246 57.5465 33.1677C57.5465 31.9108 58.055 30.7055 58.96 29.8167C59.865 28.928 61.0924 28.4287 62.3723 28.4287ZM45.8269 26.3977H48.5844C48.7673 26.3977 48.9426 26.469 49.0719 26.596C49.2012 26.7229 49.2738 26.8951 49.2738 27.0747C49.2738 27.2543 49.2012 27.4264 49.0719 27.5534C48.9426 27.6804 48.7673 27.7517 48.5844 27.7517H45.8269C45.644 27.7517 45.4687 27.6804 45.3394 27.5534C45.2101 27.4264 45.1375 27.2543 45.1375 27.0747C45.1375 26.8951 45.2101 26.7229 45.3394 26.596C45.4687 26.469 45.644 26.3977 45.8269 26.3977ZM51.342 30.4597H45.8269C45.644 30.4597 45.4687 30.3884 45.3394 30.2614C45.2101 30.1344 45.1375 29.9623 45.1375 29.7827C45.1375 29.6031 45.2101 29.4309 45.3394 29.304C45.4687 29.177 45.644 29.1057 45.8269 29.1057H51.342C51.5248 29.1057 51.7002 29.177 51.8295 29.304C51.9588 29.4309 52.0314 29.6031 52.0314 29.7827C52.0314 29.9623 51.9588 30.1344 51.8295 30.2614C51.7002 30.3884 51.5248 30.4597 51.342 30.4597Z" fill="white"/>
<path d="M53.9884 22.3355H49.9072L50.3622 21.1575L53.9884 22.3355Z" fill="white"/>
<path d="M62.3718 29.7832C61.4576 29.7832 60.5808 30.1398 59.9344 30.7746C59.288 31.4095 58.9248 32.2704 58.9248 33.1682C58.9248 34.066 59.288 34.9269 59.9344 35.5618C60.5808 36.1966 61.4576 36.5532 62.3718 36.5532H69.9C69.9143 36.5523 69.9277 36.5462 69.9379 36.5363C69.948 36.5263 69.9541 36.5131 69.9551 36.499V29.8374L62.3718 29.7832ZM62.3718 35.1992C61.9627 35.1992 61.5629 35.0801 61.2228 34.8569C60.8826 34.6337 60.6176 34.3166 60.461 33.9454C60.3045 33.5743 60.2635 33.166 60.3433 32.772C60.4231 32.378 60.6201 32.0161 60.9093 31.7321C61.1986 31.448 61.5671 31.2546 61.9683 31.1762C62.3695 31.0979 62.7853 31.1381 63.1632 31.2918C63.5411 31.4455 63.8641 31.7058 64.0914 32.0398C64.3187 32.3738 64.44 32.7665 64.44 33.1682C64.44 33.7069 64.2221 34.2235 63.8342 34.6043C63.4463 34.9852 62.9203 35.1992 62.3718 35.1992Z" fill="#2C98F6"/>
<path d="M61.6795 22.3359H58.3428L50.1804 19.6686C50.012 19.611 49.8275 19.6197 49.6655 19.6929C49.5035 19.7662 49.3768 19.8982 49.3118 20.0612L48.4156 22.3359H46.8438L48.6913 17.8C48.7244 17.7119 48.7758 17.6314 48.8423 17.5638C48.9087 17.4962 48.9888 17.4429 49.0774 17.4074C49.2548 17.3398 49.4515 17.3398 49.6289 17.4074L61.6795 22.3359Z" fill="#2C98F6"/>
<path d="M62.3719 31.1375C61.9628 31.1375 61.563 31.2566 61.2229 31.4797C60.8828 31.7029 60.6177 32.0201 60.4611 32.3912C60.3046 32.7623 60.2637 33.1707 60.3435 33.5647C60.4233 33.9587 60.6202 34.3205 60.9095 34.6046C61.1987 34.8886 61.5672 35.0821 61.9684 35.1604C62.3696 35.2388 62.7854 35.1986 63.1634 35.0449C63.5413 34.8911 63.8643 34.6308 64.0915 34.2968C64.3188 33.9628 64.4401 33.5701 64.4401 33.1685C64.4401 32.6298 64.2222 32.1132 63.8343 31.7323C63.4465 31.3514 62.9204 31.1375 62.3719 31.1375ZM62.3719 33.8455C62.2355 33.8455 62.1023 33.8057 61.9889 33.7314C61.8755 33.657 61.7872 33.5512 61.735 33.4275C61.6828 33.3038 61.6691 33.1677 61.6957 33.0364C61.7223 32.905 61.788 32.7844 61.8844 32.6897C61.9808 32.5951 62.1037 32.5306 62.2374 32.5045C62.3711 32.4783 62.5097 32.4917 62.6357 32.543C62.7617 32.5942 62.8694 32.681 62.9451 32.7923C63.0209 32.9037 63.0613 33.0346 63.0613 33.1685C63.0613 33.348 62.9887 33.5202 62.8594 33.6472C62.7301 33.7741 62.5547 33.8455 62.3719 33.8455Z" fill="#303754"/>
<path d="M62.372 33.8455C62.7528 33.8455 63.0614 33.5424 63.0614 33.1685C63.0614 32.7946 62.7528 32.4915 62.372 32.4915C61.9913 32.4915 61.6826 32.7946 61.6826 33.1685C61.6826 33.5424 61.9913 33.8455 62.372 33.8455Z" fill="#2C98F6"/>
<path d="M49.2731 27.0752C49.2731 27.2547 49.2004 27.4269 49.0712 27.5539C48.9419 27.6809 48.7665 27.7522 48.5837 27.7522H45.8261C45.6433 27.7522 45.4679 27.6809 45.3386 27.5539C45.2094 27.4269 45.1367 27.2547 45.1367 27.0752C45.1367 26.8956 45.2094 26.7234 45.3386 26.5965C45.4679 26.4695 45.6433 26.3982 45.8261 26.3982H48.5837C48.7665 26.3982 48.9419 26.4695 49.0712 26.5965C49.2004 26.7234 49.2731 26.8956 49.2731 27.0752Z" fill="#303754"/>
<path d="M52.0307 29.7832C52.0307 29.9628 51.958 30.135 51.8287 30.2619C51.6995 30.3889 51.5241 30.4602 51.3413 30.4602H45.8261C45.6433 30.4602 45.4679 30.3889 45.3386 30.2619C45.2094 30.135 45.1367 29.9628 45.1367 29.7832C45.1367 29.6036 45.2094 29.4315 45.3386 29.3045C45.4679 29.1775 45.6433 29.1062 45.8261 29.1062H51.3413C51.5241 29.1062 51.6995 29.1775 51.8287 29.3045C51.958 29.4315 52.0307 29.6036 52.0307 29.7832Z" fill="#303754"/>
<path d="M23.0914 64.012H19.0174L18.3174 66H16.6514L20.1374 56.256H21.9854L25.4714 66H23.7914L23.0914 64.012ZM22.6434 62.71L21.0614 58.188L19.4654 62.71H22.6434ZM26.5951 62.108C26.5951 61.3333 26.7537 60.6473 27.0711 60.05C27.3977 59.4527 27.8364 58.9907 28.3871 58.664C28.9471 58.328 29.5677 58.16 30.2491 58.16C30.7531 58.16 31.2477 58.272 31.7331 58.496C32.2277 58.7107 32.6197 59 32.9091 59.364V55.64H34.5191V66H32.9091V64.838C32.6477 65.2113 32.2837 65.5193 31.8171 65.762C31.3597 66.0047 30.8324 66.126 30.2351 66.126C29.5631 66.126 28.9471 65.958 28.3871 65.622C27.8364 65.2767 27.3977 64.8007 27.0711 64.194C26.7537 63.578 26.5951 62.8827 26.5951 62.108ZM32.9091 62.136C32.9091 61.604 32.7971 61.142 32.5731 60.75C32.3584 60.358 32.0737 60.0593 31.7191 59.854C31.3644 59.6487 30.9817 59.546 30.5711 59.546C30.1604 59.546 29.7777 59.6487 29.4231 59.854C29.0684 60.05 28.7791 60.344 28.5551 60.736C28.3404 61.1187 28.2331 61.576 28.2331 62.108C28.2331 62.64 28.3404 63.1067 28.5551 63.508C28.7791 63.9093 29.0684 64.2173 29.4231 64.432C29.7871 64.6373 30.1697 64.74 30.5711 64.74C30.9817 64.74 31.3644 64.6373 31.7191 64.432C32.0737 64.2267 32.3584 63.928 32.5731 63.536C32.7971 63.1347 32.9091 62.668 32.9091 62.136ZM36.2234 62.108C36.2234 61.3333 36.382 60.6473 36.6994 60.05C37.026 59.4527 37.4647 58.9907 38.0154 58.664C38.5754 58.328 39.196 58.16 39.8774 58.16C40.3814 58.16 40.876 58.272 41.3614 58.496C41.856 58.7107 42.248 59 42.5374 59.364V55.64H44.1474V66H42.5374V64.838C42.276 65.2113 41.912 65.5193 41.4454 65.762C40.988 66.0047 40.4607 66.126 39.8634 66.126C39.1914 66.126 38.5754 65.958 38.0154 65.622C37.4647 65.2767 37.026 64.8007 36.6994 64.194C36.382 63.578 36.2234 62.8827 36.2234 62.108ZM42.5374 62.136C42.5374 61.604 42.4254 61.142 42.2014 60.75C41.9867 60.358 41.702 60.0593 41.3474 59.854C40.9927 59.6487 40.61 59.546 40.1994 59.546C39.7887 59.546 39.406 59.6487 39.0514 59.854C38.6967 60.05 38.4074 60.344 38.1834 60.736C37.9687 61.1187 37.8614 61.576 37.8614 62.108C37.8614 62.64 37.9687 63.1067 38.1834 63.508C38.4074 63.9093 38.6967 64.2173 39.0514 64.432C39.4154 64.6373 39.798 64.74 40.1994 64.74C40.61 64.74 40.9927 64.6373 41.3474 64.432C41.702 64.2267 41.9867 63.928 42.2014 63.536C42.4254 63.1347 42.5374 62.668 42.5374 62.136ZM60.4084 56.27V66H58.8124V59.336L55.8444 66H54.7384L51.7564 59.336V66H50.1604V56.27H51.8824L55.2984 63.9L58.7004 56.27H60.4084ZM65.9921 66.126C65.2641 66.126 64.6061 65.9627 64.0181 65.636C63.4301 65.3 62.9681 64.8333 62.6321 64.236C62.2961 63.6293 62.1281 62.9293 62.1281 62.136C62.1281 61.352 62.3007 60.6567 62.6461 60.05C62.9914 59.4433 63.4627 58.9767 64.0601 58.65C64.6574 58.3233 65.3247 58.16 66.0621 58.16C66.7994 58.16 67.4667 58.3233 68.0641 58.65C68.6614 58.9767 69.1327 59.4433 69.4781 60.05C69.8234 60.6567 69.9961 61.352 69.9961 62.136C69.9961 62.92 69.8187 63.6153 69.4641 64.222C69.1094 64.8287 68.6241 65.3 68.0081 65.636C67.4014 65.9627 66.7294 66.126 65.9921 66.126ZM65.9921 64.74C66.4027 64.74 66.7854 64.642 67.1401 64.446C67.5041 64.25 67.7981 63.956 68.0221 63.564C68.2461 63.172 68.3581 62.696 68.3581 62.136C68.3581 61.576 68.2507 61.1047 68.0361 60.722C67.8214 60.33 67.5367 60.036 67.1821 59.84C66.8274 59.644 66.4447 59.546 66.0341 59.546C65.6234 59.546 65.2407 59.644 64.8861 59.84C64.5407 60.036 64.2654 60.33 64.0601 60.722C63.8547 61.1047 63.7521 61.576 63.7521 62.136C63.7521 62.9667 63.9621 63.6107 64.3821 64.068C64.8114 64.516 65.3481 64.74 65.9921 64.74ZM75.6058 58.16C76.2125 58.16 76.7538 58.286 77.2298 58.538C77.7151 58.79 78.0931 59.1633 78.3638 59.658C78.6345 60.1527 78.7698 60.75 78.7698 61.45V66H77.1878V61.688C77.1878 60.9973 77.0151 60.47 76.6698 60.106C76.3245 59.7327 75.8531 59.546 75.2558 59.546C74.6585 59.546 74.1825 59.7327 73.8278 60.106C73.4825 60.47 73.3098 60.9973 73.3098 61.688V66H71.7138V58.286H73.3098V59.168C73.5711 58.8507 73.9025 58.6033 74.3038 58.426C74.7145 58.2487 75.1485 58.16 75.6058 58.16ZM88.0156 61.954C88.0156 62.2433 87.9969 62.5047 87.9596 62.738H82.0656C82.1123 63.354 82.3409 63.8487 82.7516 64.222C83.1623 64.5953 83.6663 64.782 84.2636 64.782C85.1223 64.782 85.7289 64.4227 86.0836 63.704H87.8056C87.5723 64.4133 87.1476 64.9967 86.5316 65.454C85.9249 65.902 85.1689 66.126 84.2636 66.126C83.5263 66.126 82.8636 65.9627 82.2756 65.636C81.6969 65.3 81.2396 64.8333 80.9036 64.236C80.5769 63.6293 80.4136 62.9293 80.4136 62.136C80.4136 61.3427 80.5723 60.6473 80.8896 60.05C81.2163 59.4433 81.6689 58.9767 82.2476 58.65C82.8356 58.3233 83.5076 58.16 84.2636 58.16C84.9916 58.16 85.6403 58.3187 86.2096 58.636C86.7789 58.9533 87.2223 59.4013 87.5396 59.98C87.8569 60.5493 88.0156 61.2073 88.0156 61.954ZM86.3496 61.45C86.3403 60.862 86.1303 60.3907 85.7196 60.036C85.3089 59.6813 84.8003 59.504 84.1936 59.504C83.6429 59.504 83.1716 59.6813 82.7796 60.036C82.3876 60.3813 82.1543 60.8527 82.0796 61.45H86.3496ZM96.6702 58.286L91.9382 69.626H90.2862L91.8542 65.874L88.8162 58.286H90.5942L92.7642 64.166L95.0182 58.286H96.6702Z" fill="#34373F"/>
</svg>
