<svg width="106" height="140" viewBox="0 0 106 140" fill="none" xmlns="http://www.w3.org/2000/svg">
<path d="M87.262 25.0439L87.2738 25.0456L87.2855 25.0468C94.5264 25.8315 98.9174 27.8787 101.562 31.8259C104.25 35.8374 105.25 41.9644 105.25 51.2222V84.1197C105.25 93.3775 104.25 99.5045 101.562 103.516C98.9174 107.463 94.5264 109.51 87.2855 110.295L87.2738 110.296L87.262 110.298C84.5805 110.674 81.5534 110.784 78.1053 110.784H27.8947C24.4466 110.784 21.4195 110.674 18.738 110.298L18.7262 110.296L18.7145 110.295C11.4736 109.51 7.08258 107.463 4.43766 103.516C1.74964 99.5045 0.75 93.3775 0.75 84.1197V51.2222C0.75 41.9644 1.74964 35.8374 4.43766 31.8259C7.08258 27.8787 11.4736 25.8315 18.7145 25.0468L18.7262 25.0456L18.738 25.0439C21.4195 24.6674 24.4466 24.5577 27.8947 24.5577H78.1053C81.5534 24.5577 84.5805 24.6674 87.262 25.0439Z" fill="white" stroke="#34373F" stroke-width="1.5"/>
<rect x="13.6357" y="78.6178" width="74.5985" height="16.1162" rx="8.05812" fill="#235EFA"/>
<rect x="14.3857" y="56.6465" width="73.0985" height="14.6162" rx="7.30812" fill="white" stroke="#34373F" stroke-width="1.5"/>
<path d="M25.6032 67.2103C25.5414 67.2103 25.4858 67.1917 25.4364 67.1544C25.3994 67.1047 25.3809 67.0488 25.3809 66.9867L25.3994 65.3098C25.3994 65.2726 25.387 65.2477 25.3623 65.2353C25.3376 65.2229 25.3129 65.2291 25.2882 65.2539L23.7322 66.1669C23.6828 66.1917 23.6458 66.2042 23.6211 66.2042C23.5346 66.2042 23.4667 66.1607 23.4173 66.0737L22.8986 65.1049C22.8739 65.0552 22.8616 65.0117 22.8616 64.9744C22.8616 64.8875 22.9048 64.8254 22.9912 64.7881L24.5473 63.9497C24.609 63.9124 24.609 63.8751 24.5473 63.8379L22.9912 63.0367C22.9295 63.0119 22.8863 62.9684 22.8616 62.9063C22.8492 62.8442 22.8616 62.7821 22.8986 62.72L23.4173 61.7511C23.4543 61.689 23.4976 61.6517 23.547 61.6393C23.6087 61.6144 23.6705 61.6207 23.7322 61.6579L25.2882 62.5523C25.3129 62.5647 25.3376 62.5647 25.3623 62.5523C25.387 62.5398 25.3994 62.515 25.3994 62.4777L25.3809 60.8381C25.3809 60.776 25.3994 60.7263 25.4364 60.689C25.4858 60.6394 25.5414 60.6145 25.6032 60.6145H26.659C26.7208 60.6145 26.7702 60.6394 26.8072 60.689C26.8566 60.7263 26.8813 60.776 26.8813 60.8381L26.8628 62.4777C26.8628 62.515 26.8752 62.5398 26.8999 62.5523C26.9246 62.5647 26.9493 62.5647 26.974 62.5523L28.53 61.6579C28.5794 61.6331 28.6164 61.6207 28.6411 61.6207C28.7276 61.6207 28.7955 61.6641 28.8449 61.7511L29.3636 62.72C29.3883 62.7696 29.4006 62.8131 29.4006 62.8504C29.4006 62.9249 29.3574 62.9808 29.271 63.0181L27.6964 63.8379C27.6347 63.8751 27.6347 63.9124 27.6964 63.9497L29.271 64.7881C29.3327 64.813 29.3698 64.8564 29.3821 64.9185C29.4068 64.9807 29.4006 65.0428 29.3636 65.1049L28.8449 66.0737C28.8079 66.1358 28.7585 66.1793 28.6967 66.2042C28.6473 66.2166 28.5917 66.2042 28.53 66.1669L26.974 65.2539C26.9493 65.2291 26.9246 65.2229 26.8999 65.2353C26.8752 65.2477 26.8628 65.2726 26.8628 65.3098L26.8813 66.9867C26.8813 67.0488 26.8566 67.1047 26.8072 67.1544C26.7702 67.1917 26.7208 67.2103 26.659 67.2103H25.6032Z" fill="#34373F"/>
<path d="M37.844 67.2103C37.7822 67.2103 37.7267 67.1917 37.6773 67.1544C37.6402 67.1047 37.6217 67.0488 37.6217 66.9867L37.6402 65.3098C37.6402 65.2725 37.6279 65.2477 37.6032 65.2353C37.5785 65.2229 37.5538 65.2291 37.5291 65.2539L35.973 66.1669C35.9236 66.1917 35.8866 66.2042 35.8619 66.2042C35.7754 66.2042 35.7075 66.1607 35.6581 66.0737L35.1394 65.1049C35.1147 65.0552 35.1024 65.0117 35.1024 64.9744C35.1024 64.8875 35.1456 64.8254 35.2321 64.7881L36.7881 63.9497C36.8499 63.9124 36.8499 63.8751 36.7881 63.8379L35.2321 63.0367C35.1703 63.0118 35.1271 62.9684 35.1024 62.9063C35.09 62.8442 35.1024 62.782 35.1394 62.7199L35.6581 61.7511C35.6952 61.689 35.7384 61.6517 35.7878 61.6393C35.8495 61.6144 35.9113 61.6206 35.973 61.6579L37.5291 62.5522C37.5538 62.5647 37.5785 62.5647 37.6032 62.5522C37.6279 62.5398 37.6402 62.515 37.6402 62.4777L37.6217 60.8381C37.6217 60.776 37.6402 60.7263 37.6773 60.689C37.7267 60.6393 37.7822 60.6145 37.844 60.6145H38.8999C38.9616 60.6145 39.011 60.6393 39.0481 60.689C39.0975 60.7263 39.1222 60.776 39.1222 60.8381L39.1036 62.4777C39.1036 62.515 39.116 62.5398 39.1407 62.5522C39.1654 62.5647 39.1901 62.5647 39.2148 62.5522L40.7708 61.6579C40.8202 61.6331 40.8573 61.6206 40.882 61.6206C40.9684 61.6206 41.0363 61.6641 41.0857 61.7511L41.6044 62.7199C41.6291 62.7696 41.6415 62.8131 41.6415 62.8504C41.6415 62.9249 41.5982 62.9808 41.5118 63.0181L39.9372 63.8379C39.8755 63.8751 39.8755 63.9124 39.9372 63.9497L41.5118 64.7881C41.5735 64.8129 41.6106 64.8564 41.6229 64.9185C41.6476 64.9806 41.6415 65.0427 41.6044 65.1049L41.0857 66.0737C41.0487 66.1358 40.9993 66.1793 40.9375 66.2042C40.8881 66.2166 40.8326 66.2042 40.7708 66.1669L39.2148 65.2539C39.1901 65.2291 39.1654 65.2229 39.1407 65.2353C39.116 65.2477 39.1036 65.2725 39.1036 65.3098L39.1222 66.9867C39.1222 67.0488 39.0975 67.1047 39.0481 67.1544C39.011 67.1917 38.9616 67.2103 38.8999 67.2103H37.844Z" fill="#34373F"/>
<path d="M50.0849 67.2103C50.0232 67.2103 49.9676 67.1917 49.9182 67.1544C49.8811 67.1047 49.8626 67.0488 49.8626 66.9867L49.8811 65.3098C49.8811 65.2725 49.8688 65.2477 49.8441 65.2353C49.8194 65.2229 49.7947 65.2291 49.77 65.2539L48.214 66.1669C48.1646 66.1917 48.1275 66.2042 48.1028 66.2042C48.0164 66.2042 47.9484 66.1607 47.899 66.0737L47.3804 65.1049C47.3557 65.0552 47.3433 65.0117 47.3433 64.9744C47.3433 64.8875 47.3865 64.8254 47.473 64.7881L49.029 63.9497C49.0908 63.9124 49.0908 63.8751 49.029 63.8379L47.473 63.0367C47.4112 63.0118 47.368 62.9684 47.3433 62.9063C47.331 62.8442 47.3433 62.782 47.3804 62.7199L47.899 61.7511C47.9361 61.689 47.9793 61.6517 48.0287 61.6393C48.0905 61.6144 48.1522 61.6206 48.214 61.6579L49.77 62.5522C49.7947 62.5647 49.8194 62.5647 49.8441 62.5522C49.8688 62.5398 49.8811 62.515 49.8811 62.4777L49.8626 60.8381C49.8626 60.776 49.8811 60.7263 49.9182 60.689C49.9676 60.6393 50.0232 60.6145 50.0849 60.6145H51.1408C51.2025 60.6145 51.2519 60.6393 51.289 60.689C51.3384 60.7263 51.3631 60.776 51.3631 60.8381L51.3446 62.4777C51.3446 62.515 51.3569 62.5398 51.3816 62.5522C51.4063 62.5647 51.431 62.5647 51.4557 62.5522L53.0117 61.6579C53.0611 61.6331 53.0982 61.6206 53.1229 61.6206C53.2093 61.6206 53.2773 61.6641 53.3267 61.7511L53.8453 62.7199C53.87 62.7696 53.8824 62.8131 53.8824 62.8504C53.8824 62.9249 53.8392 62.9808 53.7527 63.0181L52.1781 63.8379C52.1164 63.8751 52.1164 63.9124 52.1781 63.9497L53.7527 64.7881C53.8145 64.8129 53.8515 64.8564 53.8639 64.9185C53.8886 64.9806 53.8824 65.0427 53.8453 65.1049L53.3267 66.0737C53.2896 66.1358 53.2402 66.1793 53.1785 66.2042C53.1291 66.2166 53.0735 66.2042 53.0117 66.1669L51.4557 65.2539C51.431 65.2291 51.4063 65.2229 51.3816 65.2353C51.3569 65.2477 51.3446 65.2725 51.3446 65.3098L51.3631 66.9867C51.3631 67.0488 51.3384 67.1047 51.289 67.1544C51.2519 67.1917 51.2025 67.2103 51.1408 67.2103H50.0849Z" fill="#34373F"/>
<path d="M62.3258 67.2103C62.2641 67.2103 62.2085 67.1917 62.1591 67.1544C62.1221 67.1047 62.1035 67.0488 62.1035 66.9867L62.1221 65.3098C62.1221 65.2725 62.1097 65.2477 62.085 65.2353C62.0603 65.2229 62.0356 65.2291 62.0109 65.2539L60.4549 66.1669C60.4055 66.1917 60.3684 66.2042 60.3437 66.2042C60.2573 66.2042 60.1894 66.1607 60.14 66.0737L59.6213 65.1049C59.5966 65.0552 59.5842 65.0117 59.5842 64.9744C59.5842 64.8875 59.6275 64.8254 59.7139 64.7881L61.2699 63.9497C61.3317 63.9124 61.3317 63.8751 61.2699 63.8379L59.7139 63.0367C59.6522 63.0118 59.6089 62.9684 59.5842 62.9063C59.5719 62.8442 59.5842 62.782 59.6213 62.7199L60.14 61.7511C60.177 61.689 60.2202 61.6517 60.2696 61.6393C60.3314 61.6144 60.3931 61.6206 60.4549 61.6579L62.0109 62.5522C62.0356 62.5647 62.0603 62.5647 62.085 62.5522C62.1097 62.5398 62.1221 62.515 62.1221 62.4777L62.1035 60.8381C62.1035 60.776 62.1221 60.7263 62.1591 60.689C62.2085 60.6393 62.2641 60.6145 62.3258 60.6145H63.3817C63.4435 60.6145 63.4929 60.6393 63.5299 60.689C63.5793 60.7263 63.604 60.776 63.604 60.8381L63.5855 62.4777C63.5855 62.515 63.5978 62.5398 63.6225 62.5522C63.6472 62.5647 63.6719 62.5647 63.6966 62.5522L65.2527 61.6579C65.3021 61.6331 65.3391 61.6206 65.3638 61.6206C65.4503 61.6206 65.5182 61.6641 65.5676 61.7511L66.0863 62.7199C66.111 62.7696 66.1233 62.8131 66.1233 62.8504C66.1233 62.9249 66.0801 62.9808 65.9936 63.0181L64.4191 63.8379C64.3573 63.8751 64.3573 63.9124 64.4191 63.9497L65.9936 64.7881C66.0554 64.8129 66.0924 64.8564 66.1048 64.9185C66.1295 64.9806 66.1233 65.0427 66.0863 65.1049L65.5676 66.0737C65.5305 66.1358 65.4811 66.1793 65.4194 66.2042C65.37 66.2166 65.3144 66.2042 65.2527 66.1669L63.6966 65.2539C63.6719 65.2291 63.6472 65.2229 63.6225 65.2353C63.5978 65.2477 63.5855 65.2725 63.5855 65.3098L63.604 66.9867C63.604 67.0488 63.5793 67.1047 63.5299 67.1544C63.4929 67.1917 63.4435 67.2103 63.3817 67.2103H62.3258Z" fill="#34373F"/>
<path d="M74.5666 67.2103C74.5049 67.2103 74.4493 67.1917 74.3999 67.1544C74.3628 67.1047 74.3443 67.0488 74.3443 66.9867L74.3628 65.3098C74.3628 65.2725 74.3505 65.2477 74.3258 65.2353C74.3011 65.2229 74.2764 65.2291 74.2517 65.2539L72.6957 66.1669C72.6463 66.1917 72.6092 66.2042 72.5845 66.2042C72.4981 66.2042 72.4301 66.1607 72.3807 66.0737L71.8621 65.1049C71.8374 65.0552 71.825 65.0117 71.825 64.9744C71.825 64.8875 71.8682 64.8254 71.9547 64.7881L73.5107 63.9497C73.5725 63.9124 73.5725 63.8751 73.5107 63.8379L71.9547 63.0367C71.8929 63.0118 71.8497 62.9684 71.825 62.9063C71.8127 62.8442 71.825 62.782 71.8621 62.7199L72.3807 61.7511C72.4178 61.689 72.461 61.6517 72.5104 61.6393C72.5722 61.6144 72.6339 61.6206 72.6957 61.6579L74.2517 62.5522C74.2764 62.5647 74.3011 62.5647 74.3258 62.5522C74.3505 62.5398 74.3628 62.515 74.3628 62.4777L74.3443 60.8381C74.3443 60.776 74.3628 60.7263 74.3999 60.689C74.4493 60.6393 74.5049 60.6145 74.5666 60.6145H75.6225C75.6842 60.6145 75.7336 60.6393 75.7707 60.689C75.8201 60.7263 75.8448 60.776 75.8448 60.8381L75.8263 62.4777C75.8263 62.515 75.8386 62.5398 75.8633 62.5522C75.888 62.5647 75.9127 62.5647 75.9374 62.5522L77.4934 61.6579C77.5428 61.6331 77.5799 61.6206 77.6046 61.6206C77.691 61.6206 77.759 61.6641 77.8084 61.7511L78.327 62.7199C78.3517 62.7696 78.3641 62.8131 78.3641 62.8504C78.3641 62.9249 78.3209 62.9808 78.2344 63.0181L76.6598 63.8379C76.5981 63.8751 76.5981 63.9124 76.6598 63.9497L78.2344 64.7881C78.2962 64.8129 78.3332 64.8564 78.3456 64.9185C78.3703 64.9806 78.3641 65.0427 78.327 65.1049L77.8084 66.0737C77.7713 66.1358 77.7219 66.1793 77.6602 66.2042C77.6108 66.2166 77.5552 66.2042 77.4934 66.1669L75.9374 65.2539C75.9127 65.2291 75.888 65.2229 75.8633 65.2353C75.8386 65.2477 75.8263 65.2725 75.8263 65.3098L75.8448 66.9867C75.8448 67.0488 75.8201 67.1047 75.7707 67.1544C75.7336 67.1917 75.6842 67.2103 75.6225 67.2103H74.5666Z" fill="#34373F"/>
<path d="M74.6739 90.7298L74.674 90.7299L74.6789 90.7248C74.816 90.584 74.8915 90.3959 74.8915 90.2015C74.8915 90.1102 74.8749 90.0359 74.8599 89.986L74.856 89.973L74.8516 89.9601C73.6239 86.3486 74.8657 82.3549 77.916 80.0911C80.9651 77.828 85.1197 77.8138 88.1841 80.056C91.2495 82.2989 92.5183 86.284 91.315 89.9038C90.1119 93.5229 86.7176 95.9362 82.9308 95.8735L82.9271 95.8735C81.0574 95.8517 78.883 96.1783 77.3858 97.6873L74.3677 100.729L74.3658 100.731C74.0635 101.038 73.6525 101.21 73.2248 101.209H73.2238H70.7013C70.2728 101.209 69.8609 101.038 69.5565 100.732C69.2519 100.426 69.0801 100.009 69.0801 99.5741V97.0484C69.0811 96.6131 69.2525 96.1965 69.5558 95.8886C69.556 95.8884 69.5562 95.8882 69.5564 95.888L74.6739 90.7298Z" fill="white" stroke="#34373F" stroke-width="1.5"/>
<path d="M84.818 87.3383C84.818 88.2859 84.0554 89.0467 83.1239 89.0467C82.1923 89.0467 81.4297 88.2859 81.4297 87.3383C81.4297 86.3907 82.1923 85.6299 83.1239 85.6299C84.0554 85.6299 84.818 86.3907 84.818 87.3383Z" stroke="#34373F" stroke-width="1.5" stroke-linecap="round" stroke-linejoin="round"/>
<rect x="-0.75" y="0.75" width="72.5971" height="5.74584" rx="2.87292" transform="matrix(-1 -5.33873e-09 -5.04515e-09 1 88.5488 118.521)" fill="white" stroke="#34373F" stroke-width="1.5"/>
<rect x="-0.75" y="0.75" width="35.5485" height="5.74584" rx="2.87292" transform="matrix(-1 -5.33873e-09 -5.04515e-09 1 70.0244 132.754)" fill="white" stroke="#34373F" stroke-width="1.5"/>
<mask id="path-9-inside-1_569_36220" fill="white">
<path fill-rule="evenodd" clip-rule="evenodd" d="M80.5288 16.638H92.8535H80.5288Z"/>
</mask>
<path d="M80.5288 17.638C79.9765 17.638 79.5288 17.1902 79.5288 16.638C79.5288 16.0857 79.9765 15.638 80.5288 15.638V17.638ZM92.8535 15.638C93.4058 15.638 93.8535 16.0857 93.8535 16.638C93.8535 17.1902 93.4058 17.638 92.8535 17.638V15.638ZM80.5288 15.638H92.8535V17.638H80.5288V15.638Z" fill="#34373F" mask="url(#path-9-inside-1_569_36220)"/>
<mask id="path-11-inside-2_569_36220" fill="white">
<path fill-rule="evenodd" clip-rule="evenodd" d="M2.05811 19.4845H14.3828H2.05811Z"/>
</mask>
<path d="M2.05811 20.4845C1.50582 20.4845 1.05811 20.0368 1.05811 19.4845C1.05811 18.9322 1.50582 18.4845 2.05811 18.4845V20.4845ZM14.3828 18.4845C14.9351 18.4845 15.3828 18.9322 15.3828 19.4845C15.3828 20.0368 14.9351 20.4845 14.3828 20.4845V18.4845ZM2.05811 18.4845H14.3828V20.4845H2.05811V18.4845Z" fill="#34373F" mask="url(#path-11-inside-2_569_36220)"/>
<mask id="path-13-inside-3_569_36220" fill="white">
<path fill-rule="evenodd" clip-rule="evenodd" d="M80.5288 10.5839H100.879H80.5288Z"/>
</mask>
<path d="M80.5288 11.5839C79.9765 11.5839 79.5288 11.1362 79.5288 10.5839C79.5288 10.0316 79.9765 9.58388 80.5288 9.58388V11.5839ZM100.879 9.58388C101.431 9.58388 101.879 10.0316 101.879 10.5839C101.879 11.1362 101.431 11.5839 100.879 11.5839V9.58388ZM80.5288 9.58388H100.879V11.5839H80.5288V9.58388Z" fill="#34373F" mask="url(#path-13-inside-3_569_36220)"/>
<mask id="path-15-inside-4_569_36220" fill="white">
<path fill-rule="evenodd" clip-rule="evenodd" d="M2.05811 13.4304H22.4082H2.05811Z"/>
</mask>
<path d="M2.05811 14.4304C1.50582 14.4304 1.05811 13.9827 1.05811 13.4304C1.05811 12.8782 1.50582 12.4304 2.05811 12.4304V14.4304ZM22.4082 12.4304C22.9605 12.4304 23.4082 12.8782 23.4082 13.4304C23.4082 13.9827 22.9605 14.4304 22.4082 14.4304V12.4304ZM2.05811 12.4304H22.4082V14.4304H2.05811V12.4304Z" fill="#34373F" mask="url(#path-15-inside-4_569_36220)"/>
<path d="M73.3281 11.52L73.3281 11.5199C73.3287 8.8576 71.6666 6.48363 69.1769 5.58256C69.1768 5.58254 69.1767 5.58251 69.1767 5.58249L58.4575 1.70701L58.4574 1.707C54.9285 0.431 51.0671 0.431 47.5381 1.707L36.8049 5.58955C36.8048 5.58957 36.8048 5.58958 36.8048 5.58959C34.3172 6.48985 32.6555 8.86064 32.6534 11.5206V28.8152C32.6534 32.9541 35.5487 36.6698 39.3538 39.7437C43.13 42.7943 47.6317 45.0734 50.4869 46.3584L50.4889 46.3592C52.0796 47.0806 53.902 47.0806 55.4927 46.3592L55.4946 46.3584C58.3494 45.0736 62.8513 42.791 66.6276 39.7386C70.4331 36.6626 73.3281 32.9469 73.3281 28.8152V11.52Z" fill="#235EFA" stroke="#34373F" stroke-width="1.5"/>
<path fill-rule="evenodd" clip-rule="evenodd" d="M56.4399 26.1592C58.4241 24.9971 59.7592 22.8251 59.7592 20.3374C59.7592 16.6255 56.7869 13.6165 53.1205 13.6165C49.4541 13.6165 46.4819 16.6255 46.4819 20.3374C46.4819 22.8251 47.817 24.9971 49.8012 26.1592V30.4188C49.8012 32.2747 51.2873 33.7792 53.1205 33.7792C54.9537 33.7792 56.4399 32.2747 56.4399 30.4188V26.1592Z" fill="white"/>
</svg>
