<svg width="24" height="24" viewBox="0 0 24 24" fill="none" xmlns="http://www.w3.org/2000/svg">
<path d="M20.25 7.5H3.75C3.33579 7.5 3 7.77982 3 8.125V10.625C3 10.9702 3.33579 11.25 3.75 11.25H20.25C20.6642 11.25 21 10.9702 21 10.625V8.125C21 7.77982 20.6642 7.5 20.25 7.5Z" fill="#235EFA" stroke="#235EFA" stroke-width="1.5" stroke-linecap="round" stroke-linejoin="round"/>
<path d="M19.5 12V18.75C19.5 18.9489 19.421 19.1397 19.2803 19.2803C19.1397 19.421 18.9489 19.5 18.75 19.5H5.25C5.05109 19.5 4.86032 19.421 4.71967 19.2803C4.57902 19.1397 4.5 18.9489 4.5 18.75V12" fill="#235EFA"/>
<path d="M16.2426 6.43933C15.182 7.49999 12 7.49999 12 7.49999C12 7.49999 12 4.31801 13.0607 3.25735C13.4827 2.83579 14.0549 2.59907 14.6514 2.59924C15.2479 2.59941 15.8199 2.83645 16.2417 3.25825C16.6635 3.68005 16.9006 4.25209 16.9007 4.8486C16.9009 5.44512 16.6642 6.01729 16.2426 6.43933V6.43933Z" stroke="#235EFA" stroke-width="1.5" stroke-linecap="round" stroke-linejoin="round"/>
<path d="M7.75771 6.43933C8.81837 7.49999 12.0004 7.49999 12.0004 7.49999C12.0004 7.49999 12.0004 4.31801 10.9397 3.25735C10.5177 2.83579 9.94548 2.59907 9.34897 2.59924C8.75245 2.59941 8.18042 2.83645 7.75862 3.25825C7.33682 3.68005 7.09978 4.25209 7.09961 4.8486C7.09944 5.44512 7.33615 6.01729 7.75771 6.43933V6.43933Z" stroke="#235EFA" stroke-width="1.5" stroke-linecap="round" stroke-linejoin="round"/>
</svg>
