<svg width="42" height="42" viewBox="0 0 42 42" fill="none" xmlns="http://www.w3.org/2000/svg">
<rect x="0.5" y="0.5" width="41" height="41" rx="20.5" fill="#DEF2ED"/>
<path d="M21.0031 8.69995C18.5704 8.69995 16.1924 9.42133 14.1696 10.7729C12.1469 12.1244 10.5704 14.0454 9.63941 16.2929C8.70845 18.5405 8.46487 21.0136 8.93947 23.3996C9.41407 25.7855 10.5855 27.9772 12.3057 29.6974C14.0259 31.4175 16.2176 32.589 18.6035 33.0636C20.9895 33.5382 23.4626 33.2946 25.7102 32.3637C27.9577 31.4327 29.8787 29.8562 31.2302 27.8335C32.5818 25.8107 33.3032 23.4327 33.3032 21C33.3032 17.7378 32.0073 14.6092 29.7006 12.3025C27.3939 9.99584 24.2653 8.69995 21.0031 8.69995ZM21.0031 31.6599C18.8948 31.6599 16.8338 31.0347 15.0808 29.8634C13.3277 28.6921 11.9614 27.0272 11.1546 25.0794C10.3477 23.1315 10.1366 20.9881 10.548 18.9203C10.9593 16.8524 11.9745 14.953 13.4654 13.4622C14.9562 11.9714 16.8556 10.9561 18.9235 10.5448C20.9913 10.1335 23.1347 10.3446 25.0826 11.1514C27.0304 11.9582 28.6953 13.3245 29.8666 15.0776C31.038 16.8306 31.6632 18.8916 31.6632 21C31.6632 23.8272 30.5401 26.5386 28.5409 28.5377C26.5418 30.5368 23.8304 31.6599 21.0031 31.6599Z" fill="#0A8C79"/>
<path d="M27.7856 16.3752C27.632 16.2224 27.4242 16.1367 27.2075 16.1367C26.9909 16.1367 26.7831 16.2224 26.6294 16.3752L19.0116 23.993C18.9706 24.0316 18.9163 24.0531 18.8599 24.0531C18.8035 24.0531 18.7493 24.0316 18.7082 23.993L15.379 20.6638C15.2254 20.511 15.0176 20.4253 14.8009 20.4253C14.5843 20.4253 14.3765 20.511 14.2228 20.6638C14.0701 20.8174 13.9844 21.0252 13.9844 21.2419C13.9844 21.4585 14.0701 21.6663 14.2228 21.82L18.7082 26.3054C18.7493 26.344 18.8035 26.3655 18.8599 26.3655C18.9163 26.3655 18.9706 26.344 19.0116 26.3054L27.7856 17.556C27.9384 17.4023 28.0241 17.1945 28.0241 16.9779C28.0241 16.7612 27.9384 16.5534 27.7856 16.3998V16.3752Z" fill="#0A8C79"/>
</svg>
