<svg width="42" height="42" viewBox="0 0 42 42" fill="none" xmlns="http://www.w3.org/2000/svg">
<rect x="0.5" y="0.5" width="41" height="41" rx="20.5" fill="#FFDFE3"/>
<path fill-rule="evenodd" clip-rule="evenodd" d="M31.5419 17.8395L32.2176 20.5421C33.2502 20.6993 34.044 21.5932 34.044 22.669V27.0266C34.044 27.2522 33.861 27.4351 33.6354 27.4351H32.3002L32.3005 27.4474C32.3007 27.4523 32.3009 27.4573 32.3009 27.4623C32.3009 28.889 31.1402 30.0496 29.7136 30.0496C28.287 30.0496 27.1263 28.889 27.1263 27.4623C27.1263 27.4573 27.1265 27.4524 27.1267 27.4474L27.127 27.4351H17.9203L17.9207 27.4474C17.9208 27.4523 17.921 27.4573 17.921 27.4623C17.921 28.889 16.7603 30.0496 15.3337 30.0496C13.9072 30.0496 12.7465 28.889 12.7465 27.4623C12.7465 27.4573 12.7466 27.4524 12.7468 27.4474L12.7472 27.4351H10.5405C10.0749 27.4351 9.69617 27.0564 9.69617 26.5908V25.6921H8.36166C8.13602 25.6921 7.95312 25.5092 7.95312 25.2835C7.95312 25.0579 8.13607 24.875 8.36166 24.875H12.2835C12.5091 24.875 12.692 25.0579 12.692 25.2835C12.692 25.5092 12.509 25.6921 12.2835 25.6921H10.5132V26.5908C10.5132 26.6058 10.5254 26.618 10.5404 26.618H12.8886C13.2395 25.6048 14.2027 24.875 15.3337 24.875C16.4648 24.875 17.4279 25.6048 17.7788 26.618H26.2547V23.5406C26.2547 23.3149 26.4377 23.132 26.6633 23.132C26.8889 23.132 27.0718 23.315 27.0718 23.5406V26.6181H27.2685C27.6193 25.6049 28.5826 24.8751 29.7136 24.8751C30.8446 24.8751 31.8078 25.6049 32.1587 26.6181H33.2269V24.8207H32.7639C32.0581 24.8207 31.4839 24.2465 31.4839 23.5406V22.6691C31.4839 22.4435 31.6668 22.2606 31.8924 22.2606H33.1627C32.9897 21.7242 32.4862 21.335 31.8932 21.3346L31.8921 21.3347L31.891 21.3346H27.0719V21.7977C27.0719 22.0233 26.889 22.2062 26.6634 22.2062C26.4377 22.2062 26.2548 22.0233 26.2548 21.7977V14.3897C26.2548 14.3747 26.2426 14.3625 26.2276 14.3625H10.5404C10.5254 14.3625 10.5132 14.3747 10.5132 14.3897V21.7976C10.5132 22.0232 10.3303 22.2061 10.1047 22.2061C9.87901 22.2061 9.69612 22.0232 9.69612 21.7976V14.3897C9.69612 13.9241 10.0748 13.5454 10.5404 13.5454H26.2277C26.6932 13.5454 27.0719 13.9241 27.0719 14.3897V15.2885H30.1495C31.0955 15.2885 31.8652 16.0582 31.8652 17.0043V17.44C31.8652 17.6364 31.7266 17.8003 31.5419 17.8395ZM30.1495 16.1055H27.0719V17.0315H31.0482V17.0043C31.0482 16.5087 30.645 16.1055 30.1495 16.1055ZM27.0719 17.8485V20.5175H31.3693L30.702 17.8485H27.0719ZM13.5635 27.4624C13.5635 28.4386 14.3576 29.2327 15.3337 29.2327C16.3099 29.2327 17.104 28.4386 17.104 27.4624C17.104 26.4862 16.3099 25.6922 15.3337 25.6922C14.3576 25.6922 13.5635 26.4862 13.5635 27.4624ZM27.9434 27.4624C27.9434 28.4386 28.7376 29.2327 29.7137 29.2327C30.6898 29.2327 31.484 28.4386 31.484 27.4624C31.484 26.4862 30.6898 25.6922 29.7137 25.6922C28.7376 25.6922 27.9434 26.4862 27.9434 27.4624ZM32.764 24.0036H33.227V23.0776H32.301V23.5406C32.301 23.7959 32.5087 24.0036 32.764 24.0036ZM14.4895 27.4624C14.4895 26.9969 14.8683 26.6181 15.3338 26.6181C15.7994 26.6181 16.1781 26.9969 16.1781 27.4624C16.1781 27.928 15.7994 28.3067 15.3338 28.3067C14.8683 28.3067 14.4895 27.928 14.4895 27.4624ZM29.7137 26.6181C29.2482 26.6181 28.8695 26.9969 28.8695 27.4624C28.8695 27.928 29.2482 28.3067 29.7137 28.3067C30.1793 28.3067 30.558 27.928 30.558 27.4624C30.558 26.9969 30.1793 26.6181 29.7137 26.6181ZM21.9005 17.3268C22.0785 17.1488 22.3671 17.1488 22.545 17.3268C22.723 17.5047 22.723 17.7933 22.545 17.9713L18.1698 22.3465C18.0809 22.4355 17.9641 22.48 17.8475 22.48C17.7309 22.48 17.6143 22.4355 17.5253 22.3465L15.0946 19.9158C14.9166 19.7378 14.9166 19.4493 15.0946 19.2713C15.2726 19.0933 15.5611 19.0933 15.7391 19.2713L17.8475 21.3797L21.9005 17.3268Z" fill="#ED1365"/>
</svg>
