<svg width="42" height="42" viewBox="0 0 42 42" fill="none" xmlns="http://www.w3.org/2000/svg">
<rect x="0.5" y="0.5" width="41" height="41" rx="20.5" fill="#FCEBCA"/>
<path d="M33 21.0055C32.9987 23.7815 32.035 26.4712 30.2731 28.6164C28.5111 30.7616 26.0599 32.2296 23.337 32.7702C20.6142 33.3109 17.7881 32.8908 15.3402 31.5814C12.8923 30.2721 10.9741 28.1546 9.91239 25.5897C8.85064 23.0247 8.71102 20.171 9.51732 17.5146C10.3236 14.8583 12.026 12.5636 14.3343 11.0216C16.6427 9.47959 19.4143 8.78561 22.1769 9.05787C24.9396 9.33014 27.5224 10.5518 29.4853 12.5148L30.247 11.7531C30.3254 11.6747 30.4248 11.6207 30.5332 11.5974C30.6416 11.5742 30.7544 11.5828 30.858 11.6222C30.9617 11.6615 31.0517 11.73 31.1174 11.8193C31.1831 11.9086 31.2215 12.015 31.2282 12.1256L31.4062 15.0028C31.4114 15.0837 31.3994 15.1648 31.3709 15.2407C31.3425 15.3167 31.2982 15.3857 31.2411 15.4432C31.1839 15.5007 31.1152 15.5455 31.0395 15.5745C30.9637 15.6035 30.8827 15.616 30.8018 15.6113L27.9246 15.4333C27.814 15.4267 27.7075 15.3884 27.6181 15.3229C27.5286 15.2575 27.4599 15.1676 27.4202 15.0641C27.3805 14.9606 27.3714 14.8479 27.394 14.7394C27.4167 14.6308 27.4701 14.5312 27.5479 14.4522L28.3096 13.6946C26.6165 12.004 24.3896 10.9527 22.0082 10.7199C19.6269 10.4871 17.2386 11.0872 15.2501 12.418C13.2616 13.7487 11.7961 15.7278 11.1032 18.0179C10.4103 20.3081 10.5329 22.7676 11.4502 24.9775C12.3674 27.1874 14.0225 29.0109 16.1335 30.1372C18.2444 31.2636 20.6806 31.6232 23.027 31.1547C25.3734 30.6862 27.4847 29.4187 29.0013 27.568C30.5178 25.7174 31.3458 23.3981 31.3441 21.0055C31.3441 20.7859 31.4313 20.5753 31.5866 20.42C31.7418 20.2647 31.9524 20.1775 32.172 20.1775C32.3916 20.1775 32.6022 20.2647 32.7575 20.42C32.9128 20.5753 33 20.7859 33 21.0055Z" fill="#F29339"/>
<path d="M23.6803 24.2727C23.5609 24.2739 23.4428 24.2475 23.3353 24.1954L20.2411 22.6483C20.1117 22.5838 20.003 22.4844 19.9273 22.3614C19.8516 22.2383 19.8118 22.0965 19.8125 21.952V15.7636C19.8125 15.5584 19.894 15.3616 20.0391 15.2166C20.1842 15.0715 20.3809 14.99 20.5861 14.99C20.7912 14.99 20.988 15.0715 21.1331 15.2166C21.2781 15.3616 21.3596 15.5584 21.3596 15.7636V21.474L24.0261 22.8068C24.1822 22.8846 24.3074 23.0129 24.3815 23.1708C24.4555 23.3287 24.474 23.507 24.4339 23.6768C24.3939 23.8465 24.2977 23.9978 24.1609 24.1059C24.0241 24.2141 23.8547 24.2729 23.6803 24.2727Z" fill="#F29339"/>
</svg>
