<svg width="42" height="42" viewBox="0 0 42 42" fill="none" xmlns="http://www.w3.org/2000/svg">
<rect x="0.5" y="0.5" width="41" height="41" rx="20.5" fill="white"/>
<path d="M21.0004 9C14.3728 9 9 14.3728 9 20.9987C9 27.628 14.3728 33 21.0004 33C27.6306 33 33.0009 27.6272 33.0009 20.9987C33.0017 14.3728 27.6306 9 21.0004 9ZM21.0004 31.7718C15.0509 31.7718 10.2282 26.9483 10.2282 20.9987C10.2282 15.0509 15.0509 10.2282 21.0004 10.2282C26.95 10.2282 31.7727 15.0517 31.7727 20.9987C31.7727 26.9483 26.95 31.7718 21.0004 31.7718Z" fill="#DC2626"/>
<path d="M25.1186 12.9113L15.8672 22.1128H19.2969L16.6602 29.0898L26.1348 19.8899H22.7016L25.1186 12.9113Z" fill="#DC2626"/>
</svg>
