<svg width="138" height="140" viewBox="0 0 138 140" fill="none" xmlns="http://www.w3.org/2000/svg">
<circle cx="65.8823" cy="65.8823" r="65.1323" fill="white" stroke="#34373F" stroke-width="1.5"/>
<rect x="14.8677" y="6.63232" width="102.029" height="114.971" rx="7.25" fill="white" stroke="#34373F" stroke-width="1.5"/>
<line x1="14.1177" y1="22.7794" x2="116.471" y2="22.7794" stroke="#34373F" stroke-width="1.5"/>
<line x1="14.1851" y1="108.476" x2="118.02" y2="108.476" stroke="#34373F" stroke-width="1.5"/>
<path d="M29.0702 15.6315C29.0702 16.8727 28.0614 17.8817 26.8134 17.8817C25.5655 17.8817 24.5566 16.8727 24.5566 15.6315C24.5566 14.3903 25.5655 13.3813 26.8134 13.3813C28.0614 13.3813 29.0702 14.3903 29.0702 15.6315Z" fill="white" stroke="#34373F" stroke-width="1.5"/>
<path d="M38.0898 15.6315C38.0898 16.8727 37.0809 17.8817 35.833 17.8817C34.585 17.8817 33.5762 16.8727 33.5762 15.6315C33.5762 14.3903 34.585 13.3813 35.833 13.3813C37.0809 13.3813 38.0898 14.3903 38.0898 15.6315Z" fill="white" stroke="#34373F" stroke-width="1.5"/>
<path d="M47.1112 15.6315C47.1112 16.8727 46.1024 17.8817 44.8545 17.8817C43.6065 17.8817 42.5977 16.8727 42.5977 15.6315C42.5977 14.3903 43.6065 13.3813 44.8545 13.3813C46.1024 13.3813 47.1112 14.3903 47.1112 15.6315Z" fill="white" stroke="#34373F" stroke-width="1.5"/>
<rect x="31.1035" y="35.9977" width="70.2496" height="13.8771" rx="6.93857" fill="white" stroke="#34373F" stroke-width="1.5"/>
<rect x="31.1035" y="57.6769" width="70.2496" height="13.8771" rx="6.93857" fill="white" stroke="#34373F" stroke-width="1.5"/>
<rect x="30.3535" y="78.6061" width="71.7496" height="15.3771" rx="7.68857" fill="#235EFA"/>
<path d="M41.864 67.7218C41.8046 67.7218 41.7512 67.704 41.7037 67.6684C41.668 67.621 41.6502 67.5677 41.6502 67.5084L41.668 65.9085C41.668 65.8729 41.6561 65.8492 41.6324 65.8373C41.6086 65.8255 41.5849 65.8314 41.5611 65.8551L40.0645 66.7262C40.017 66.7499 39.9814 66.7618 39.9576 66.7618C39.8745 66.7618 39.8091 66.7203 39.7616 66.6373L39.2627 65.7129C39.239 65.6655 39.2271 65.624 39.2271 65.5885C39.2271 65.5055 39.2687 65.4462 39.3518 65.4107L40.8484 64.6107C40.9078 64.5751 40.9078 64.5396 40.8484 64.504L39.3518 63.7396C39.2924 63.7159 39.2509 63.6744 39.2271 63.6151C39.2152 63.5559 39.2271 63.4966 39.2627 63.4374L39.7616 62.5129C39.7972 62.4537 39.8388 62.4181 39.8863 62.4063C39.9457 62.3825 40.0051 62.3885 40.0645 62.424L41.5611 63.2774C41.5849 63.2892 41.6086 63.2892 41.6324 63.2774C41.6561 63.2655 41.668 63.2418 41.668 63.2062L41.6502 61.6418C41.6502 61.5826 41.668 61.5351 41.7037 61.4996C41.7512 61.4522 41.8046 61.4285 41.864 61.4285H42.8796C42.939 61.4285 42.9865 61.4522 43.0221 61.4996C43.0696 61.5351 43.0934 61.5826 43.0934 61.6418L43.0756 63.2062C43.0756 63.2418 43.0874 63.2655 43.1112 63.2774C43.1349 63.2892 43.1587 63.2892 43.1825 63.2774L44.6791 62.424C44.7266 62.4003 44.7622 62.3885 44.786 62.3885C44.8691 62.3885 44.9344 62.43 44.982 62.5129L45.4808 63.4374C45.5046 63.4848 45.5165 63.5262 45.5165 63.5618C45.5165 63.6329 45.4749 63.6862 45.3917 63.7218L43.8773 64.504C43.8179 64.5396 43.8179 64.5751 43.8773 64.6107L45.3917 65.4107C45.4511 65.4344 45.4868 65.4759 45.4986 65.5351C45.5224 65.5944 45.5165 65.6536 45.4808 65.7129L44.982 66.6373C44.9463 66.6966 44.8988 66.7381 44.8394 66.7618C44.7919 66.7736 44.7385 66.7618 44.6791 66.7262L43.1825 65.8551C43.1587 65.8314 43.1349 65.8255 43.1112 65.8373C43.0874 65.8492 43.0756 65.8729 43.0756 65.9085L43.0934 67.5084C43.0934 67.5677 43.0696 67.621 43.0221 67.6684C42.9865 67.704 42.939 67.7218 42.8796 67.7218H41.864Z" fill="#34373F"/>
<path d="M53.6374 67.7218C53.578 67.7218 53.5245 67.704 53.477 67.6684C53.4414 67.621 53.4236 67.5677 53.4236 67.5084L53.4414 65.9084C53.4414 65.8729 53.4295 65.8492 53.4058 65.8373C53.382 65.8255 53.3582 65.8314 53.3345 65.8551L51.8379 66.7262C51.7904 66.7499 51.7547 66.7618 51.731 66.7618C51.6478 66.7618 51.5825 66.7203 51.535 66.6373L51.0361 65.7129C51.0124 65.6655 51.0005 65.624 51.0005 65.5884C51.0005 65.5055 51.0421 65.4462 51.1252 65.4107L52.6218 64.6107C52.6812 64.5751 52.6812 64.5396 52.6218 64.504L51.1252 63.7396C51.0658 63.7159 51.0242 63.6744 51.0005 63.6151C50.9886 63.5559 51.0005 63.4966 51.0361 63.4373L51.535 62.5129C51.5706 62.4536 51.6122 62.4181 51.6597 62.4062C51.7191 62.3825 51.7785 62.3885 51.8379 62.424L53.3345 63.2773C53.3582 63.2892 53.382 63.2892 53.4058 63.2773C53.4295 63.2655 53.4414 63.2418 53.4414 63.2062L53.4236 61.6418C53.4236 61.5825 53.4414 61.5351 53.477 61.4996C53.5245 61.4522 53.578 61.4285 53.6374 61.4285H54.6529C54.7123 61.4285 54.7598 61.4522 54.7955 61.4996C54.843 61.5351 54.8667 61.5825 54.8667 61.6418L54.8489 63.2062C54.8489 63.2418 54.8608 63.2655 54.8846 63.2773C54.9083 63.2892 54.9321 63.2892 54.9558 63.2773L56.4524 62.424C56.4999 62.4003 56.5356 62.3885 56.5593 62.3885C56.6425 62.3885 56.7078 62.4299 56.7553 62.5129L57.2542 63.4373C57.2779 63.4848 57.2898 63.5262 57.2898 63.5618C57.2898 63.6329 57.2483 63.6862 57.1651 63.7218L55.6507 64.504C55.5913 64.5396 55.5913 64.5751 55.6507 64.6107L57.1651 65.4107C57.2245 65.4344 57.2601 65.4759 57.272 65.5351C57.2958 65.5944 57.2898 65.6536 57.2542 65.7129L56.7553 66.6373C56.7197 66.6966 56.6722 66.7381 56.6128 66.7618C56.5653 66.7736 56.5118 66.7618 56.4524 66.7262L54.9558 65.8551C54.9321 65.8314 54.9083 65.8255 54.8846 65.8373C54.8608 65.8492 54.8489 65.8729 54.8489 65.9084L54.8667 67.5084C54.8667 67.5677 54.843 67.621 54.7955 67.6684C54.7598 67.704 54.7123 67.7218 54.6529 67.7218H53.6374Z" fill="#34373F"/>
<path d="M65.4108 67.7218C65.3514 67.7218 65.298 67.704 65.2505 67.6684C65.2148 67.621 65.197 67.5677 65.197 67.5084L65.2148 65.9084C65.2148 65.8729 65.203 65.8492 65.1792 65.8373C65.1555 65.8255 65.1317 65.8314 65.1079 65.8551L63.6113 66.7262C63.5638 66.7499 63.5282 66.7618 63.5044 66.7618C63.4213 66.7618 63.3559 66.7203 63.3084 66.6373L62.8096 65.7129C62.7858 65.6655 62.7739 65.624 62.7739 65.5884C62.7739 65.5055 62.8155 65.4462 62.8987 65.4107L64.3953 64.6107C64.4547 64.5751 64.4547 64.5396 64.3953 64.504L62.8987 63.7396C62.8393 63.7159 62.7977 63.6744 62.7739 63.6151C62.7621 63.5559 62.7739 63.4966 62.8096 63.4373L63.3084 62.5129C63.3441 62.4536 63.3856 62.4181 63.4332 62.4062C63.4925 62.3825 63.5519 62.3885 63.6113 62.424L65.1079 63.2773C65.1317 63.2892 65.1555 63.2892 65.1792 63.2773C65.203 63.2655 65.2148 63.2418 65.2148 63.2062L65.197 61.6418C65.197 61.5825 65.2148 61.5351 65.2505 61.4996C65.298 61.4522 65.3514 61.4285 65.4108 61.4285H66.4264C66.4858 61.4285 66.5333 61.4522 66.5689 61.4996C66.6164 61.5351 66.6402 61.5825 66.6402 61.6418L66.6224 63.2062C66.6224 63.2418 66.6343 63.2655 66.658 63.2773C66.6818 63.2892 66.7055 63.2892 66.7293 63.2773L68.2259 62.424C68.2734 62.4003 68.309 62.3885 68.3328 62.3885C68.4159 62.3885 68.4813 62.4299 68.5288 62.5129L69.0276 63.4373C69.0514 63.4848 69.0633 63.5262 69.0633 63.5618C69.0633 63.6329 69.0217 63.6862 68.9386 63.7218L67.4241 64.504C67.3647 64.5396 67.3647 64.5751 67.4241 64.6107L68.9386 65.4107C68.998 65.4344 69.0336 65.4759 69.0455 65.5351C69.0692 65.5944 69.0633 65.6536 69.0276 65.7129L68.5288 66.6373C68.4931 66.6966 68.4456 66.7381 68.3862 66.7618C68.3387 66.7736 68.2853 66.7618 68.2259 66.7262L66.7293 65.8551C66.7055 65.8314 66.6818 65.8255 66.658 65.8373C66.6343 65.8492 66.6224 65.8729 66.6224 65.9084L66.6402 67.5084C66.6402 67.5677 66.6164 67.621 66.5689 67.6684C66.5333 67.704 66.4858 67.7218 66.4264 67.7218H65.4108Z" fill="#34373F"/>
<path d="M77.1843 67.7218C77.1249 67.7218 77.0714 67.704 77.0239 67.6684C76.9883 67.621 76.9705 67.5677 76.9705 67.5084L76.9883 65.9084C76.9883 65.8729 76.9764 65.8492 76.9527 65.8373C76.9289 65.8255 76.9051 65.8314 76.8814 65.8551L75.3848 66.7262C75.3373 66.7499 75.3016 66.7618 75.2779 66.7618C75.1947 66.7618 75.1294 66.7203 75.0819 66.6373L74.583 65.7129C74.5593 65.6655 74.5474 65.624 74.5474 65.5884C74.5474 65.5055 74.589 65.4462 74.6721 65.4107L76.1687 64.6107C76.2281 64.5751 76.2281 64.5396 76.1687 64.504L74.6721 63.7396C74.6127 63.7159 74.5711 63.6744 74.5474 63.6151C74.5355 63.5559 74.5474 63.4966 74.583 63.4373L75.0819 62.5129C75.1175 62.4536 75.1591 62.4181 75.2066 62.4062C75.266 62.3825 75.3254 62.3885 75.3848 62.424L76.8814 63.2773C76.9051 63.2892 76.9289 63.2892 76.9527 63.2773C76.9764 63.2655 76.9883 63.2418 76.9883 63.2062L76.9705 61.6418C76.9705 61.5825 76.9883 61.5351 77.0239 61.4996C77.0714 61.4522 77.1249 61.4285 77.1843 61.4285H78.1998C78.2592 61.4285 78.3067 61.4522 78.3424 61.4996C78.3899 61.5351 78.4136 61.5825 78.4136 61.6418L78.3958 63.2062C78.3958 63.2418 78.4077 63.2655 78.4315 63.2773C78.4552 63.2892 78.479 63.2892 78.5027 63.2773L79.9993 62.424C80.0469 62.4003 80.0825 62.3885 80.1062 62.3885C80.1894 62.3885 80.2547 62.4299 80.3022 62.5129L80.8011 63.4373C80.8249 63.4848 80.8367 63.5262 80.8367 63.5618C80.8367 63.6329 80.7952 63.6862 80.712 63.7218L79.1976 64.504C79.1382 64.5396 79.1382 64.5751 79.1976 64.6107L80.712 65.4107C80.7714 65.4344 80.807 65.4759 80.8189 65.5351C80.8427 65.5944 80.8367 65.6536 80.8011 65.7129L80.3022 66.6373C80.2666 66.6966 80.2191 66.7381 80.1597 66.7618C80.1122 66.7736 80.0587 66.7618 79.9993 66.7262L78.5027 65.8551C78.479 65.8314 78.4552 65.8255 78.4315 65.8373C78.4077 65.8492 78.3958 65.8729 78.3958 65.9084L78.4136 67.5084C78.4136 67.5677 78.3899 67.621 78.3424 67.6684C78.3067 67.704 78.2592 67.7218 78.1998 67.7218H77.1843Z" fill="#34373F"/>
<path d="M88.9576 67.7218C88.8982 67.7218 88.8448 67.704 88.7972 67.6684C88.7616 67.621 88.7438 67.5677 88.7438 67.5084L88.7616 65.9084C88.7616 65.8729 88.7497 65.8492 88.726 65.8373C88.7022 65.8255 88.6785 65.8314 88.6547 65.8551L87.1581 66.7262C87.1106 66.7499 87.075 66.7618 87.0512 66.7618C86.9681 66.7618 86.9027 66.7203 86.8552 66.6373L86.3563 65.7129C86.3326 65.6655 86.3207 65.624 86.3207 65.5884C86.3207 65.5055 86.3623 65.4462 86.4454 65.4107L87.942 64.6107C88.0014 64.5751 88.0014 64.5396 87.942 64.504L86.4454 63.7396C86.386 63.7159 86.3445 63.6744 86.3207 63.6151C86.3088 63.5559 86.3207 63.4966 86.3563 63.4373L86.8552 62.5129C86.8908 62.4536 86.9324 62.4181 86.9799 62.4062C87.0393 62.3825 87.0987 62.3885 87.1581 62.424L88.6547 63.2773C88.6785 63.2892 88.7022 63.2892 88.726 63.2773C88.7497 63.2655 88.7616 63.2418 88.7616 63.2062L88.7438 61.6418C88.7438 61.5825 88.7616 61.5351 88.7972 61.4996C88.8448 61.4522 88.8982 61.4285 88.9576 61.4285H89.9732C90.0325 61.4285 90.0801 61.4522 90.1157 61.4996C90.1632 61.5351 90.187 61.5825 90.187 61.6418L90.1691 63.2062C90.1691 63.2418 90.181 63.2655 90.2048 63.2773C90.2285 63.2892 90.2523 63.2892 90.276 63.2773L91.7727 62.424C91.8202 62.4003 91.8558 62.3885 91.8796 62.3885C91.9627 62.3885 92.028 62.4299 92.0755 62.5129L92.5744 63.4373C92.5982 63.4848 92.6101 63.5262 92.6101 63.5618C92.6101 63.6329 92.5685 63.6862 92.4853 63.7218L90.9709 64.504C90.9115 64.5396 90.9115 64.5751 90.9709 64.6107L92.4853 65.4107C92.5447 65.4344 92.5804 65.4759 92.5922 65.5351C92.616 65.5944 92.6101 65.6536 92.5744 65.7129L92.0755 66.6373C92.0399 66.6966 91.9924 66.7381 91.933 66.7618C91.8855 66.7736 91.8321 66.7618 91.7727 66.7262L90.276 65.8551C90.2523 65.8314 90.2285 65.8255 90.2048 65.8373C90.181 65.8492 90.1691 65.8729 90.1691 65.9084L90.187 67.5084C90.187 67.5677 90.1632 67.621 90.1157 67.6684C90.0801 67.704 90.0325 67.7218 89.9732 67.7218H88.9576Z" fill="#34373F"/>
<path d="M136.896 106.939L136.896 106.939V122.765C136.896 126.513 134.248 129.896 130.74 132.709C127.262 135.498 123.115 137.584 120.483 138.759L120.481 138.76C119.028 139.413 117.363 139.413 115.909 138.76L115.908 138.759C113.275 137.584 109.128 135.501 105.651 132.714C102.143 129.903 99.4941 126.52 99.4941 122.765V106.94C99.496 104.536 101.01 102.389 103.283 101.573L136.896 106.939ZM136.896 106.939C136.897 104.533 135.383 102.383 133.108 101.566C133.107 101.566 133.107 101.566 133.107 101.566L123.22 98.02L123.22 98.02C119.976 96.8566 116.427 96.8566 113.184 98.02C113.184 98.02 113.184 98.02 113.184 98.02L103.283 101.573L136.896 106.939Z" fill="#235EFA" stroke="#34373F" stroke-width="1.5"/>
<path fill-rule="evenodd" clip-rule="evenodd" d="M121.326 120.435C123.277 119.316 124.59 117.226 124.59 114.831C124.59 111.258 121.667 108.362 118.062 108.362C114.456 108.362 111.534 111.258 111.534 114.831C111.534 117.226 112.846 119.316 114.798 120.435V124.535C114.798 126.322 116.259 127.77 118.062 127.77C119.865 127.77 121.326 126.322 121.326 124.535V120.435Z" fill="white"/>
</svg>
