<svg width="344" height="344" viewBox="0 0 344 344" fill="none" xmlns="http://www.w3.org/2000/svg">
<path d="M119.033 114.506L157.002 76.4944L163.077 70.3821H100.998L10.2516 161.685L0 172L10.2516 182.315L100.808 273.236H162.698L62.0795 172L119.033 114.506Z" fill="#34373F"/>
<path d="M163.457 273.999L164.027 273.236H162.698L163.457 273.999Z" fill="#235EFA"/>
<path d="M257.431 273.236H256.291L256.861 273.808L257.431 273.236Z" fill="#235EFA"/>
<path d="M275.086 70.382C273.567 70.191 271.859 70.191 270.34 70.191H257.051L256.861 70L256.671 70.191H225.726H194.781L194.592 70.382L179.214 85.8539L113.338 152.135L93.5939 172L179.214 258.146L194.402 273.427H226.106H256.481L241.294 258.146L210.349 227.011L201.806 218.416H218.892H270.53C274.327 218.416 278.124 218.034 281.731 217.652C313.055 212.876 337.925 188.236 343.051 156.719C343.81 152.708 344 148.697 344 144.494C344 104.955 313.625 72.8652 275.086 70.382ZM264.265 180.214H256.481H192.503C180.163 180.214 169.342 173.91 162.887 164.551L209.969 117.18L218.702 108.393H263.316H264.265C284.009 108.393 299.956 124.438 299.956 144.303C299.956 144.685 299.956 144.876 299.956 145.258C299.576 164.551 283.819 180.214 264.265 180.214Z" fill="#235EFA"/>
</svg>
