<svg width="112" height="84" viewBox="0 0 112 84" fill="none" xmlns="http://www.w3.org/2000/svg">
<rect x="0.5" y="0.5" width="111" height="83" rx="3.5" fill="white" stroke="#DFDFDF"/>
<path d="M28.3542 66.098C27.7009 66.098 27.1129 65.986 26.5902 65.762C26.0675 65.5287 25.6569 65.202 25.3582 64.782C25.0595 64.362 24.9102 63.872 24.9102 63.312H26.6182C26.6555 63.732 26.8189 64.0773 27.1082 64.348C27.4069 64.6187 27.8222 64.754 28.3542 64.754C28.9049 64.754 29.3342 64.6233 29.6422 64.362C29.9502 64.0913 30.1042 63.746 30.1042 63.326C30.1042 62.9993 30.0062 62.7333 29.8102 62.528C29.6235 62.3227 29.3855 62.164 29.0962 62.052C28.8162 61.94 28.4242 61.8187 27.9202 61.688C27.2855 61.52 26.7675 61.352 26.3662 61.184C25.9742 61.0067 25.6382 60.736 25.3582 60.372C25.0782 60.008 24.9382 59.5227 24.9382 58.916C24.9382 58.356 25.0782 57.866 25.3582 57.446C25.6382 57.026 26.0302 56.704 26.5342 56.48C27.0382 56.256 27.6215 56.144 28.2842 56.144C29.2269 56.144 29.9969 56.382 30.5942 56.858C31.2009 57.3247 31.5369 57.9687 31.6022 58.79H29.8382C29.8102 58.4353 29.6422 58.132 29.3342 57.88C29.0262 57.628 28.6202 57.502 28.1162 57.502C27.6589 57.502 27.2855 57.6187 26.9962 57.852C26.7069 58.0853 26.5622 58.4213 26.5622 58.86C26.5622 59.1587 26.6509 59.406 26.8282 59.602C27.0149 59.7887 27.2482 59.938 27.5282 60.05C27.8082 60.162 28.1909 60.2833 28.6762 60.414C29.3202 60.5913 29.8429 60.7687 30.2442 60.946C30.6549 61.1233 31.0002 61.3987 31.2802 61.772C31.5695 62.136 31.7142 62.626 31.7142 63.242C31.7142 63.7367 31.5789 64.2033 31.3082 64.642C31.0469 65.0807 30.6595 65.4353 30.1462 65.706C29.6422 65.9673 29.0449 66.098 28.3542 66.098ZM40.8074 61.954C40.8074 62.2433 40.7888 62.5047 40.7514 62.738H34.8574C34.9041 63.354 35.1328 63.8487 35.5434 64.222C35.9541 64.5953 36.4581 64.782 37.0554 64.782C37.9141 64.782 38.5208 64.4227 38.8754 63.704H40.5974C40.3641 64.4133 39.9394 64.9967 39.3234 65.454C38.7168 65.902 37.9608 66.126 37.0554 66.126C36.3181 66.126 35.6554 65.9627 35.0674 65.636C34.4888 65.3 34.0314 64.8333 33.6954 64.236C33.3688 63.6293 33.2054 62.9293 33.2054 62.136C33.2054 61.3427 33.3641 60.6473 33.6814 60.05C34.0081 59.4433 34.4608 58.9767 35.0394 58.65C35.6274 58.3233 36.2994 58.16 37.0554 58.16C37.7834 58.16 38.4321 58.3187 39.0014 58.636C39.5708 58.9533 40.0141 59.4013 40.3314 59.98C40.6488 60.5493 40.8074 61.2073 40.8074 61.954ZM39.1414 61.45C39.1321 60.862 38.9221 60.3907 38.5114 60.036C38.1008 59.6813 37.5921 59.504 36.9854 59.504C36.4348 59.504 35.9634 59.6813 35.5714 60.036C35.1794 60.3813 34.9461 60.8527 34.8714 61.45H39.1414ZM46.41 58.16C47.0167 58.16 47.558 58.286 48.034 58.538C48.5194 58.79 48.8974 59.1633 49.168 59.658C49.4387 60.1527 49.574 60.75 49.574 61.45V66H47.992V61.688C47.992 60.9973 47.8194 60.47 47.474 60.106C47.1287 59.7327 46.6574 59.546 46.06 59.546C45.4627 59.546 44.9867 59.7327 44.632 60.106C44.2867 60.47 44.114 60.9973 44.114 61.688V66H42.518V58.286H44.114V59.168C44.3754 58.8507 44.7067 58.6033 45.108 58.426C45.5187 58.2487 45.9527 58.16 46.41 58.16ZM51.2178 62.108C51.2178 61.3333 51.3765 60.6473 51.6938 60.05C52.0205 59.4527 52.4592 58.9907 53.0098 58.664C53.5698 58.328 54.1905 58.16 54.8718 58.16C55.3758 58.16 55.8705 58.272 56.3558 58.496C56.8505 58.7107 57.2425 59 57.5318 59.364V55.64H59.1418V66H57.5318V64.838C57.2705 65.2113 56.9065 65.5193 56.4398 65.762C55.9825 66.0047 55.4552 66.126 54.8578 66.126C54.1858 66.126 53.5698 65.958 53.0098 65.622C52.4592 65.2767 52.0205 64.8007 51.6938 64.194C51.3765 63.578 51.2178 62.8827 51.2178 62.108ZM57.5318 62.136C57.5318 61.604 57.4198 61.142 57.1958 60.75C56.9812 60.358 56.6965 60.0593 56.3418 59.854C55.9872 59.6487 55.6045 59.546 55.1938 59.546C54.7832 59.546 54.4005 59.6487 54.0458 59.854C53.6912 60.05 53.4018 60.344 53.1778 60.736C52.9632 61.1187 52.8558 61.576 52.8558 62.108C52.8558 62.64 52.9632 63.1067 53.1778 63.508C53.4018 63.9093 53.6912 64.2173 54.0458 64.432C54.4098 64.6373 54.7925 64.74 55.1938 64.74C55.6045 64.74 55.9872 64.6373 56.3418 64.432C56.6965 64.2267 56.9812 63.928 57.1958 63.536C57.4198 63.1347 57.5318 62.668 57.5318 62.136ZM72.1968 59.07C71.9448 58.5847 71.5948 58.2207 71.1468 57.978C70.6988 57.726 70.1808 57.6 69.5928 57.6C68.9488 57.6 68.3748 57.7447 67.8708 58.034C67.3668 58.3233 66.9702 58.734 66.6808 59.266C66.4008 59.798 66.2608 60.414 66.2608 61.114C66.2608 61.814 66.4008 62.4347 66.6808 62.976C66.9702 63.508 67.3668 63.9187 67.8708 64.208C68.3748 64.4973 68.9488 64.642 69.5928 64.642C70.4608 64.642 71.1655 64.3993 71.7068 63.914C72.2482 63.4287 72.5795 62.7707 72.7008 61.94H69.0468V60.666H74.4088V61.912C74.3062 62.668 74.0355 63.3633 73.5968 63.998C73.1675 64.6327 72.6028 65.1413 71.9028 65.524C71.2122 65.8973 70.4422 66.084 69.5928 66.084C68.6782 66.084 67.8428 65.874 67.0868 65.454C66.3308 65.0247 65.7288 64.432 65.2808 63.676C64.8422 62.92 64.6228 62.066 64.6228 61.114C64.6228 60.162 64.8422 59.308 65.2808 58.552C65.7288 57.796 66.3308 57.208 67.0868 56.788C67.8522 56.3587 68.6875 56.144 69.5928 56.144C70.6288 56.144 71.5482 56.4007 72.3508 56.914C73.1628 57.418 73.7508 58.1367 74.1148 59.07H72.1968ZM77.719 56.27V66H76.123V56.27H77.719ZM83.1884 59.588H81.7604V66H80.1504V59.588H79.2404V58.286H80.1504V57.74C80.1504 56.8533 80.3837 56.2093 80.8504 55.808C81.3264 55.3973 82.0684 55.192 83.0764 55.192V56.522C82.591 56.522 82.2504 56.6153 82.0544 56.802C81.8584 56.9793 81.7604 57.292 81.7604 57.74V58.286H83.1884V59.588ZM86.6048 59.588V63.858C86.6048 64.1473 86.6701 64.3573 86.8008 64.488C86.9408 64.6093 87.1741 64.67 87.5008 64.67H88.4808V66H87.2208C86.5021 66 85.9515 65.832 85.5688 65.496C85.1861 65.16 84.9948 64.614 84.9948 63.858V59.588H84.0848V58.286H84.9948V56.368H86.6048V58.286H88.4808V59.588H86.6048Z" fill="#34373F"/>
<path d="M68.1197 26.6638V43.5H43.8809V26.6638H68.1197Z" fill="#EF5261" stroke="#34373F"/>
<path d="M56.1455 20.2494C56.1455 20.2494 58.402 15.4902 63.7913 16.045C64.0317 16.0722 64.2496 16.2016 64.3912 16.4013C64.9836 17.2048 65.2877 18.1907 65.2529 19.1948C65.1511 21.0284 58.5007 22.4408 58.5007 22.4408L57.0912 22.1557L56.1455 20.2494Z" fill="#F6C863"/>
<path d="M61.7656 20.9804C60.3899 21.5039 58.9335 21.7733 57.4648 21.776C59.4265 19.9709 61.9245 18.8847 64.5618 18.69C64.8726 18.664 64.9888 19.0261 64.7749 19.2573C64.293 19.7768 63.068 20.4744 61.7656 20.9804Z" fill="#EAB54E"/>
<path d="M56.1443 20.2494C56.1443 20.2494 53.8878 15.4902 48.4985 16.045C48.2581 16.0722 48.0402 16.2016 47.8986 16.4013C47.3061 17.2048 47.0021 18.1907 47.0369 19.1948C47.1388 21.0284 53.7891 22.4408 53.7891 22.4408L55.1985 22.1557L56.1443 20.2494Z" fill="#F6C863"/>
<path d="M50.5197 20.9804C51.8954 21.5039 53.3518 21.7733 54.8205 21.776C53.7234 20.7824 52.4615 19.9954 51.0937 19.4515C50.0104 19.0401 48.8761 18.7839 47.7236 18.69C47.4128 18.664 47.2966 19.0261 47.5104 19.2573C47.9906 19.7768 49.2191 20.4744 50.5197 20.9804Z" fill="#EAB54E"/>
<path d="M56.0008 23.5596C56.9348 23.5596 57.692 22.7888 57.692 21.8379C57.692 20.887 56.9348 20.1162 56.0008 20.1162C55.0668 20.1162 54.3096 20.887 54.3096 21.8379C54.3096 22.7888 55.0668 23.5596 56.0008 23.5596Z" fill="#EAB54E"/>
<path d="M42.5 26.6352V22.3376H69.5V26.6352H42.5Z" fill="#EF5261" stroke="#34373F"/>
<path d="M43.3809 27.135H68.6201V28.371H43.3809V27.135Z" fill="#DA364C"/>
<path d="M53.9688 21.8376H58.0291V43.9997H53.9688V21.8376Z" fill="#F6C863"/>
<path d="M53.9678 27.135H58.0302V28.371H53.9678V27.135Z" fill="#EAB54E"/>
</svg>
