<svg width="299" height="180" viewBox="0 0 299 180" fill="none" xmlns="http://www.w3.org/2000/svg">
<path opacity="0.5" d="M233.113 84C233.113 129.839 195.928 167 150.057 167C104.185 167 67.0005 129.839 67.0005 84C67.0005 38.161 104.185 1 150.057 1C195.928 1 233.113 38.161 233.113 84Z" stroke="#235EFA" stroke-width="2"/>
<g filter="url(#filter0_dd_569_35802)">
<ellipse cx="150.057" cy="84" rx="59.4544" ry="59.4146" fill="white"/>
</g>
<path fill-rule="evenodd" clip-rule="evenodd" d="M173.376 89.1021V69.6854C173.377 66.3437 171.279 63.3606 168.13 62.2277L156.025 57.8768C151.854 56.3773 147.29 56.3773 143.119 57.8768L130.999 62.2357C127.853 63.3675 125.755 66.3466 125.752 69.6854V89.1021C125.752 99.191 139.889 106.657 146.39 109.565C148.408 110.475 150.721 110.475 152.739 109.565C159.24 106.657 173.376 99.1752 173.376 89.1021Z" fill="#235EFA"/>
<path fill-rule="evenodd" clip-rule="evenodd" d="M143.374 58.5847C147.38 57.1445 151.764 57.1445 155.771 58.5847L167.875 62.9356C170.725 63.9612 172.625 66.6615 172.624 69.6853V89.1022C172.624 93.7813 169.328 97.9757 165.024 101.434C160.751 104.868 155.659 107.435 152.432 108.879L152.43 108.879C150.608 109.701 148.52 109.701 146.698 108.879L146.696 108.879C143.469 107.435 138.377 104.872 134.104 101.44C129.801 97.9838 126.504 93.7893 126.504 89.1022V69.686C126.507 66.6649 128.405 63.9683 131.253 62.9436M131.253 62.9436L143.374 58.5847C143.374 58.5847 143.374 58.5847 143.374 58.5847M156.28 57.1689C151.944 55.6104 147.2 55.6104 142.865 57.1689L130.744 61.5279C127.3 62.7669 125.003 66.0284 125 69.6849V89.1022C125 94.5039 128.772 99.0867 133.162 102.613C137.582 106.163 142.808 108.787 146.081 110.252C148.295 111.249 150.832 111.249 153.046 110.252C156.32 108.787 161.547 106.159 165.967 102.607C170.357 99.0789 174.128 94.4961 174.128 89.1022V69.6856C174.128 69.6856 174.128 69.6857 174.128 69.6856C174.129 66.026 171.831 62.76 168.384 61.52L156.28 57.1689C156.28 57.1689 156.28 57.1689 156.28 57.1689Z" fill="#34373F"/>
<path fill-rule="evenodd" clip-rule="evenodd" d="M153.459 86.12C155.7 84.8154 157.208 82.3769 157.208 79.5841C157.208 75.4169 153.851 72.0387 149.711 72.0387C145.571 72.0387 142.215 75.4169 142.215 79.5841C142.215 82.3769 143.722 84.8154 145.963 86.12V90.9021C145.963 92.9857 147.641 94.6748 149.711 94.6748C151.781 94.6748 153.459 92.9857 153.459 90.9021V86.12Z" fill="white"/>
<path d="M283.611 119.99C283.829 118.924 285.352 118.924 285.57 119.99L286.903 126.509C286.984 126.902 287.29 127.208 287.683 127.288L294.203 128.62C295.27 128.838 295.27 130.362 294.203 130.58L287.683 131.912C287.29 131.992 286.984 132.298 286.903 132.691L285.57 139.21C285.352 140.276 283.829 140.276 283.611 139.21L282.277 132.691C282.197 132.298 281.89 131.992 281.498 131.912L274.977 130.58C273.911 130.362 273.911 128.838 274.977 128.62L281.498 127.288C281.89 127.208 282.197 126.902 282.277 126.509L283.611 119.99Z" fill="#34373F"/>
<path opacity="0.2" d="M39.8477 160.79C40.0657 159.724 41.589 159.724 41.8071 160.79L42.7328 165.316C42.8131 165.709 43.1199 166.016 43.5124 166.096L48.0386 167.02C49.1051 167.238 49.1051 168.762 48.0386 168.98L43.5124 169.904C43.1199 169.984 42.8131 170.291 42.7328 170.684L41.8071 175.21C41.589 176.276 40.0657 176.276 39.8477 175.21L38.9219 170.684C38.8416 170.291 38.5348 169.984 38.1423 169.904L33.6161 168.98C32.5496 168.762 32.5496 167.238 33.6161 167.02L38.1423 166.096C38.5348 166.016 38.8416 165.709 38.9219 165.316L39.8477 160.79Z" fill="#34373F"/>
<path opacity="0.2" d="M258.394 19.19C258.612 18.1239 260.135 18.1239 260.353 19.19L261.279 23.7162C261.359 24.1088 261.666 24.4155 262.058 24.4956L266.585 25.4201C267.651 25.638 267.651 27.1618 266.585 27.3797L262.058 28.3042C261.666 28.3843 261.359 28.6911 261.279 29.0836L260.353 33.6098C260.135 34.6759 258.612 34.6759 258.394 33.6098L257.468 29.0836C257.388 28.6911 257.081 28.3843 256.688 28.3042L252.162 27.3797C251.096 27.1618 251.096 25.638 252.162 25.4201L256.688 24.4956C257.081 24.4155 257.388 24.1088 257.468 23.7162L258.394 19.19Z" fill="#34373F"/>
<path d="M18.2331 21.5902C18.4512 20.524 19.9745 20.524 20.1926 21.5902L22.341 32.0945C22.4213 32.487 22.7281 32.7937 23.1206 32.8739L33.6289 35.0203C34.6954 35.2381 34.6954 36.762 33.6289 36.9798L23.1206 39.1262C22.7281 39.2064 22.4213 39.5131 22.341 39.9056L20.1926 50.4099C19.9745 51.4761 18.4512 51.4761 18.2331 50.4099L16.0847 39.9056C16.0044 39.5131 15.6976 39.2064 15.3051 39.1262L4.7968 36.9798C3.73029 36.762 3.73029 35.2381 4.79679 35.0203L15.3051 32.8739C15.6976 32.7937 16.0044 32.487 16.0847 32.0945L18.2331 21.5902Z" fill="#235EFA"/>
<defs>
<filter id="filter0_dd_569_35802" x="74.6025" y="16.5853" width="150.909" height="150.829" filterUnits="userSpaceOnUse" color-interpolation-filters="sRGB">
<feFlood flood-opacity="0" result="BackgroundImageFix"/>
<feColorMatrix in="SourceAlpha" type="matrix" values="0 0 0 0 0 0 0 0 0 0 0 0 0 0 0 0 0 0 127 0" result="hardAlpha"/>
<feOffset dy="8"/>
<feGaussianBlur stdDeviation="8"/>
<feColorMatrix type="matrix" values="0 0 0 0 0.2 0 0 0 0 0.223529 0 0 0 0 0.294118 0 0 0 0.1 0"/>
<feBlend mode="normal" in2="BackgroundImageFix" result="effect1_dropShadow_569_35802"/>
<feColorMatrix in="SourceAlpha" type="matrix" values="0 0 0 0 0 0 0 0 0 0 0 0 0 0 0 0 0 0 127 0" result="hardAlpha"/>
<feOffset dy="2"/>
<feGaussianBlur stdDeviation="2"/>
<feColorMatrix type="matrix" values="0 0 0 0 0.20092 0 0 0 0 0.221801 0 0 0 0 0.295833 0 0 0 0.06 0"/>
<feBlend mode="normal" in2="effect1_dropShadow_569_35802" result="effect2_dropShadow_569_35802"/>
<feBlend mode="normal" in="SourceGraphic" in2="effect2_dropShadow_569_35802" result="shape"/>
</filter>
</defs>
</svg>
