<svg width="63" height="22" viewBox="0 0 63 22" fill="none" xmlns="http://www.w3.org/2000/svg">
<path d="M9.92695 0.811884L10.0807 0.461426H9.69802H8.53023H8.3662L8.3009 0.611902L2.29698 14.447V0.711426V0.461426H2.04698H1H0.75V0.711426V20.8055V21.0555H1H2.08725H2.33725V20.8055V18.0795L4.89476 12.2703L8.33831 20.8981L8.4011 21.0555H8.5705H9.69802H10.0662L9.93038 20.7132L5.78098 10.2599L9.92695 0.811884Z" fill="#007A70" stroke="#007A70" stroke-width="0.5"/>
<path d="M19.8742 1.53689L19.8737 1.53639C19.0909 0.797034 18.0566 0.461426 16.8027 0.461426C15.5472 0.461426 14.555 0.797904 13.7739 1.53455C12.8627 2.36018 12.4453 3.52342 12.4453 5.02017V16.98C12.4453 18.4825 12.9061 19.6398 13.7691 20.461C14.5143 21.2047 15.5521 21.5387 16.8027 21.5387C18.0556 21.5387 19.0891 21.2036 19.8718 20.4656C20.783 19.64 21.2004 18.4767 21.2004 16.98V5.02017C21.2004 3.51625 20.7388 2.3582 19.8742 1.53689ZM14.8322 2.67217L14.8323 2.67226L14.838 2.66695C15.3038 2.23702 15.9619 2.00841 16.8027 2.00841C17.6388 2.00841 18.301 2.23467 18.8105 2.66961C19.3426 3.16868 19.6131 3.9339 19.6131 5.02017V16.98C19.6131 18.0688 19.3413 18.8351 18.8066 19.3341L18.8065 19.334L18.8004 19.3401C18.3806 19.7599 17.7306 19.9917 16.8027 19.9917C15.9168 19.9917 15.266 19.7608 14.8453 19.3401L14.8454 19.34L14.8391 19.3341C14.3044 18.8351 14.0326 18.0688 14.0326 16.98V5.02017C14.0326 3.8861 14.3067 3.1276 14.8322 2.67217Z" fill="#007A70" stroke="#007A70" stroke-width="0.5"/>
<path d="M31.1321 1.53689L31.1315 1.53639C30.3487 0.797034 29.3144 0.461426 28.0605 0.461426C26.8051 0.461426 25.8128 0.797904 25.0317 1.53455C24.1205 2.36018 23.7031 3.52342 23.7031 5.02017V16.98C23.7031 18.4825 24.1639 19.6398 25.0269 20.461C25.7721 21.2047 26.81 21.5387 28.0605 21.5387C29.3134 21.5387 30.347 21.2036 31.1296 20.4656C32.0409 19.64 32.4582 18.4767 32.4582 16.98V5.02017C32.4582 3.51625 31.9966 2.3582 31.1321 1.53689ZM26.09 2.67217L26.0901 2.67226L26.0959 2.66695C26.5616 2.23702 27.2197 2.00841 28.0605 2.00841C28.9464 2.00841 29.5973 2.23932 30.018 2.66002L30.0179 2.66013L30.0242 2.66601C30.5588 3.165 30.8307 3.93129 30.8307 5.02017V16.98C30.8307 18.0688 30.5588 18.8351 30.0242 19.3341L30.0241 19.334L30.018 19.3401C29.5982 19.7599 28.9482 19.9917 28.0203 19.9917C27.1344 19.9917 26.4835 19.7608 26.0628 19.3401L26.0629 19.34L26.0566 19.3341C25.522 18.8351 25.2501 18.0688 25.2501 16.98V5.02017C25.2501 3.89525 25.5598 3.13171 26.09 2.67217Z" fill="#007A70" stroke="#007A70" stroke-width="0.5"/>
<path d="M36.492 20.8932L39.6318 12.5205L42.5453 20.8877L42.6038 21.0555H42.7814H43.909H44.2604L44.1451 20.7234L40.5107 10.2594L44.1423 0.801039L44.2727 0.461426H43.909H42.7814H42.609L42.5478 0.622564L36.5079 16.5051V0.711426V0.461426H36.2579H35.2109H34.9609V0.711426V20.8055V21.0555H35.2109H36.2579H36.4312L36.492 20.8932Z" fill="#007A70" stroke="#007A70" stroke-width="0.5"/>
<path d="M46.6562 20.7652V21.0152H46.9062H47.9532H48.2032V20.7652V0.711426V0.461426H47.9532H46.9062H46.6562V0.711426V20.7652Z" fill="#007A70" stroke="#007A70" stroke-width="0.5"/>
<path d="M59.8609 0.711426V0.46026L59.6097 0.461428L50.952 0.501697L50.7031 0.502855V0.751695V1.79868V2.04868H50.9531H54.4884V20.7652V21.0152H54.7384H55.7854H56.0354V20.7652V2.00841H59.6109H59.8609V1.75841V0.711426Z" fill="#007A70" stroke="#007A70" stroke-width="0.5"/>
<path d="M62.0255 20.0806C62.0255 19.3961 61.4617 18.8726 60.8174 18.8726C60.1329 18.8726 59.6094 19.4363 59.6094 20.0806C59.6094 20.7652 60.1731 21.2887 60.8174 21.2887C61.4617 21.2887 62.0255 20.7652 62.0255 20.0806Z" fill="#440063"/>
</svg>
