<svg width="112" height="84" viewBox="0 0 112 84" fill="none" xmlns="http://www.w3.org/2000/svg">
<rect x="0.5" y="0.5" width="111" height="83" rx="3.5" fill="white" stroke="#DFDFDF"/>
<path d="M34.348 56.27V57.572H31.758V66H30.162V57.572H27.558V56.27H34.348ZM37.7003 59.406C37.9336 59.014 38.2416 58.7107 38.6243 58.496C39.0163 58.272 39.4783 58.16 40.0103 58.16V59.812H39.6043C38.979 59.812 38.503 59.9707 38.1763 60.288C37.859 60.6053 37.7003 61.156 37.7003 61.94V66H36.1043V58.286H37.7003V59.406ZM41.0853 62.108C41.0853 61.3333 41.244 60.6473 41.5613 60.05C41.888 59.4527 42.3267 58.9907 42.8773 58.664C43.4373 58.328 44.0533 58.16 44.7253 58.16C45.332 58.16 45.8593 58.2813 46.3073 58.524C46.7647 58.7573 47.1287 59.0513 47.3993 59.406V58.286H49.0093V66H47.3993V64.852C47.1287 65.216 46.76 65.5193 46.2933 65.762C45.8267 66.0047 45.2947 66.126 44.6973 66.126C44.0347 66.126 43.428 65.958 42.8773 65.622C42.3267 65.2767 41.888 64.8007 41.5613 64.194C41.244 63.578 41.0853 62.8827 41.0853 62.108ZM47.3993 62.136C47.3993 61.604 47.2873 61.142 47.0633 60.75C46.8487 60.358 46.564 60.0593 46.2093 59.854C45.8547 59.6487 45.472 59.546 45.0613 59.546C44.6507 59.546 44.268 59.6487 43.9133 59.854C43.5587 60.05 43.2693 60.344 43.0453 60.736C42.8307 61.1187 42.7233 61.576 42.7233 62.108C42.7233 62.64 42.8307 63.1067 43.0453 63.508C43.2693 63.9093 43.5587 64.2173 43.9133 64.432C44.2773 64.6373 44.66 64.74 45.0613 64.74C45.472 64.74 45.8547 64.6373 46.2093 64.432C46.564 64.2267 46.8487 63.928 47.0633 63.536C47.2873 63.1347 47.3993 62.668 47.3993 62.136ZM55.1376 58.16C55.7443 58.16 56.2856 58.286 56.7616 58.538C57.247 58.79 57.625 59.1633 57.8956 59.658C58.1663 60.1527 58.3016 60.75 58.3016 61.45V66H56.7196V61.688C56.7196 60.9973 56.547 60.47 56.2016 60.106C55.8563 59.7327 55.385 59.546 54.7876 59.546C54.1903 59.546 53.7143 59.7327 53.3596 60.106C53.0143 60.47 52.8416 60.9973 52.8416 61.688V66H51.2456V58.286H52.8416V59.168C53.103 58.8507 53.4343 58.6033 53.8356 58.426C54.2463 58.2487 54.6803 58.16 55.1376 58.16ZM63.2774 66.126C62.6708 66.126 62.1248 66.0187 61.6394 65.804C61.1634 65.58 60.7854 65.2813 60.5054 64.908C60.2254 64.5253 60.0761 64.1007 60.0574 63.634H61.7094C61.7374 63.9607 61.8914 64.236 62.1714 64.46C62.4608 64.6747 62.8201 64.782 63.2494 64.782C63.6974 64.782 64.0428 64.698 64.2854 64.53C64.5374 64.3527 64.6634 64.1287 64.6634 63.858C64.6634 63.5687 64.5234 63.354 64.2434 63.214C63.9728 63.074 63.5388 62.92 62.9414 62.752C62.3628 62.5933 61.8914 62.4393 61.5274 62.29C61.1634 62.1407 60.8461 61.912 60.5754 61.604C60.3141 61.296 60.1834 60.89 60.1834 60.386C60.1834 59.9753 60.3048 59.602 60.5474 59.266C60.7901 58.9207 61.1354 58.65 61.5834 58.454C62.0408 58.258 62.5634 58.16 63.1514 58.16C64.0288 58.16 64.7334 58.384 65.2654 58.832C65.8068 59.2707 66.0961 59.8727 66.1334 60.638H64.5374C64.5094 60.2927 64.3694 60.0173 64.1174 59.812C63.8654 59.6067 63.5248 59.504 63.0954 59.504C62.6754 59.504 62.3534 59.5833 62.1294 59.742C61.9054 59.9007 61.7934 60.1107 61.7934 60.372C61.7934 60.5773 61.8681 60.75 62.0174 60.89C62.1668 61.03 62.3488 61.142 62.5634 61.226C62.7781 61.3007 63.0954 61.3987 63.5154 61.52C64.0754 61.6693 64.5328 61.8233 64.8874 61.982C65.2514 62.1313 65.5641 62.3553 65.8254 62.654C66.0868 62.9527 66.2221 63.3493 66.2314 63.844C66.2314 64.2827 66.1101 64.6747 65.8674 65.02C65.6248 65.3653 65.2794 65.636 64.8314 65.832C64.3928 66.028 63.8748 66.126 63.2774 66.126ZM71.3299 59.588H69.9019V66H68.2919V59.588H67.3819V58.286H68.2919V57.74C68.2919 56.8533 68.5253 56.2093 68.9919 55.808C69.4679 55.3973 70.2099 55.192 71.2179 55.192V56.522C70.7326 56.522 70.3919 56.6153 70.1959 56.802C69.9999 56.9793 69.9019 57.292 69.9019 57.74V58.286H71.3299V59.588ZM79.9544 61.954C79.9544 62.2433 79.9357 62.5047 79.8984 62.738H74.0044C74.051 63.354 74.2797 63.8487 74.6904 64.222C75.101 64.5953 75.605 64.782 76.2024 64.782C77.061 64.782 77.6677 64.4227 78.0224 63.704H79.7444C79.511 64.4133 79.0864 64.9967 78.4704 65.454C77.8637 65.902 77.1077 66.126 76.2024 66.126C75.465 66.126 74.8024 65.9627 74.2144 65.636C73.6357 65.3 73.1784 64.8333 72.8424 64.236C72.5157 63.6293 72.3524 62.9293 72.3524 62.136C72.3524 61.3427 72.511 60.6473 72.8284 60.05C73.155 59.4433 73.6077 58.9767 74.1864 58.65C74.7744 58.3233 75.4464 58.16 76.2024 58.16C76.9304 58.16 77.579 58.3187 78.1484 58.636C78.7177 58.9533 79.161 59.4013 79.4784 59.98C79.7957 60.5493 79.9544 61.2073 79.9544 61.954ZM78.2884 61.45C78.279 60.862 78.069 60.3907 77.6584 60.036C77.2477 59.6813 76.739 59.504 76.1324 59.504C75.5817 59.504 75.1104 59.6813 74.7184 60.036C74.3264 60.3813 74.093 60.8527 74.0184 61.45H78.2884ZM83.261 59.406C83.4943 59.014 83.8023 58.7107 84.185 58.496C84.577 58.272 85.039 58.16 85.571 58.16V59.812H85.165C84.5397 59.812 84.0637 59.9707 83.737 60.288C83.4197 60.6053 83.261 61.156 83.261 61.94V66H81.665V58.286H83.261V59.406Z" fill="#34373F"/>
<path d="M60.967 16.4519H51.0315C49.7844 16.4519 48.7734 17.4629 48.7734 18.71V41.2906C48.7734 42.5377 49.7844 43.5487 51.0315 43.5487H60.967C62.2141 43.5487 63.225 42.5377 63.225 41.2906V18.71C63.225 17.4629 62.2141 16.4519 60.967 16.4519Z" fill="#76A3FC"/>
<path d="M51.0342 16.4519L52.8406 18.2584H59.1632L60.9697 16.4519H51.0342Z" fill="#2770FF"/>
<path d="M52.3867 43.5479V42.6447C52.3867 42.4051 52.4819 42.1754 52.6513 42.006C52.8207 41.8366 53.0504 41.7415 53.2899 41.7415H58.7093C58.9488 41.7415 59.1786 41.8366 59.348 42.006C59.5174 42.1754 59.6125 42.4051 59.6125 42.6447V43.5479H52.3867Z" fill="#2770FF"/>
<path d="M47.8705 30.4515C50.8636 30.4515 53.2899 28.0252 53.2899 25.0321C53.2899 22.0391 50.8636 19.6128 47.8705 19.6128C44.8775 19.6128 42.4512 22.0391 42.4512 25.0321C42.4512 28.0252 44.8775 30.4515 47.8705 30.4515Z" fill="#F8CD73"/>
<path d="M51.9355 23.0003C51.9346 22.3531 51.8202 21.7111 51.5972 21.1035C50.5458 20.1256 49.149 19.6054 47.7141 19.6574C46.2792 19.7093 44.9237 20.3292 43.9458 21.3806C42.9679 22.4319 42.4477 23.8287 42.4996 25.2637C42.5516 26.6986 43.1715 28.0541 44.2228 29.032C44.534 29.0732 44.8474 29.0949 45.1613 29.097C48.9025 29.097 51.9355 26.3675 51.9355 23.0003Z" fill="#F9D78F"/>
<path d="M55.096 34.5164H46.967V32.71L43.8057 35.4196L46.967 38.1293V36.3229H55.096V34.5164Z" fill="#F8CD73"/>
<path d="M56.9033 24.129H65.0324V22.3225L68.1936 25.0322L65.0324 27.7419V25.9354H56.9033V24.129Z" fill="#F8CD73"/>
<path d="M64.1293 40.3868C67.1223 40.3868 69.5487 37.9605 69.5487 34.9675C69.5487 31.9744 67.1223 29.5481 64.1293 29.5481C61.1363 29.5481 58.71 31.9744 58.71 34.9675C58.71 37.9605 61.1363 40.3868 64.1293 40.3868Z" fill="#F8CD73"/>
<path d="M68.1933 32.9353C68.1925 32.2881 68.078 31.6461 67.855 31.0386C66.8037 30.0606 65.4069 29.5405 63.9719 29.5924C62.537 29.6444 61.1815 30.2642 60.2036 31.3156C59.2257 32.367 58.7055 33.7638 58.7575 35.1987C58.8094 36.6336 59.4293 37.9892 60.4807 38.9671C60.7918 39.0082 61.1052 39.03 61.4191 39.0321C65.1603 39.0321 68.1933 36.3026 68.1933 32.9353Z" fill="#F9D78F"/>
<path d="M47.8699 22.774C48.1095 22.774 48.3392 22.8691 48.5086 23.0385C48.678 23.2079 48.7732 23.4377 48.7732 23.6772H49.6764C49.6749 23.2779 49.5411 22.8903 49.296 22.5751C49.0509 22.2598 48.7082 22.0347 48.3215 21.9349V20.9675H47.4183V21.9349C46.9931 22.0443 46.6224 22.3052 46.3758 22.6686C46.1293 23.032 46.0238 23.4728 46.0793 23.9084C46.1347 24.344 46.3472 24.7444 46.6769 25.0344C47.0066 25.3245 47.4308 25.4842 47.8699 25.4837C48.0486 25.4837 48.2232 25.5366 48.3717 25.6359C48.5203 25.7351 48.636 25.8762 48.7044 26.0412C48.7728 26.2063 48.7906 26.3879 48.7558 26.5631C48.7209 26.7383 48.6349 26.8992 48.5086 27.0256C48.3823 27.1519 48.2213 27.2379 48.0461 27.2728C47.8709 27.3076 47.6893 27.2897 47.5243 27.2214C47.3592 27.153 47.2182 27.0372 47.1189 26.8887C47.0197 26.7402 46.9667 26.5655 46.9667 26.3869H46.0635C46.065 26.7862 46.1987 27.1738 46.4439 27.489C46.689 27.8043 47.0317 28.0294 47.4183 28.1292V29.0966H48.3215V28.1292C48.7468 28.0198 49.1175 27.7589 49.364 27.3955C49.6106 27.0321 49.716 26.5913 49.6606 26.1557C49.6052 25.7201 49.3926 25.3197 49.0629 25.0297C48.7333 24.7396 48.309 24.5799 47.8699 24.5804C47.6304 24.5804 47.4006 24.4853 47.2313 24.3159C47.0619 24.1465 46.9667 23.9168 46.9667 23.6772C46.9667 23.4377 47.0619 23.2079 47.2313 23.0385C47.4006 22.8691 47.6304 22.774 47.8699 22.774Z" fill="#34373F"/>
<path d="M64.1307 32.7098C64.3702 32.7098 64.6 32.8049 64.7693 32.9743C64.9387 33.1437 65.0339 33.3734 65.0339 33.613H65.9371C65.9356 33.2137 65.8019 32.8261 65.5567 32.5109C65.3116 32.1956 64.9689 31.9705 64.5823 31.8707V30.9033H63.6791V31.8707C63.2538 31.9801 62.8831 32.241 62.6366 32.6044C62.39 32.9678 62.2846 33.4086 62.34 33.8442C62.3954 34.2798 62.608 34.6802 62.9376 34.9702C63.2673 35.2603 63.6916 35.42 64.1307 35.4194C64.3093 35.4194 64.4839 35.4724 64.6325 35.5717C64.781 35.6709 64.8968 35.812 64.9651 35.977C65.0335 36.1421 65.0514 36.3237 65.0165 36.4989C64.9817 36.6741 64.8957 36.835 64.7693 36.9614C64.643 37.0877 64.4821 37.1737 64.3069 37.2085C64.1317 37.2434 63.9501 37.2255 63.785 37.1571C63.62 37.0888 63.4789 36.973 63.3797 36.8245C63.2804 36.6759 63.2274 36.5013 63.2274 36.3227H62.3242C62.3257 36.722 62.4595 37.1096 62.7046 37.4248C62.9497 37.74 63.2924 37.9652 63.6791 38.065V39.0324H64.5823V38.065C65.0075 37.9555 65.3782 37.6947 65.6248 37.3313C65.8713 36.9679 65.9768 36.5271 65.9213 36.0915C65.8659 35.6559 65.6534 35.2555 65.3237 34.9654C64.994 34.6754 64.5698 34.5157 64.1307 34.5162C63.8911 34.5162 63.6614 34.4211 63.492 34.2517C63.3226 34.0823 63.2274 33.8525 63.2274 33.613C63.2274 33.3734 63.3226 33.1437 63.492 32.9743C63.6614 32.8049 63.8911 32.7098 64.1307 32.7098Z" fill="#34373F"/>
<path d="M64.129 29.0968C63.9764 29.0968 63.8269 29.1081 63.6774 29.1198V26.3871H64.5806V27.7419C64.5807 27.8283 64.6054 27.9129 64.652 27.9856C64.6987 28.0583 64.7651 28.1161 64.8436 28.1522C64.9221 28.1883 65.0093 28.2011 65.0948 28.1892C65.1804 28.1772 65.2607 28.1409 65.3263 28.0847L68.4875 25.375C68.537 25.3326 68.5766 25.2801 68.6038 25.2209C68.631 25.1617 68.6451 25.0974 68.6451 25.0323C68.6451 24.9671 68.631 24.9028 68.6038 24.8436C68.5766 24.7845 68.537 24.7319 68.4875 24.6895L65.3263 21.9798C65.2607 21.9236 65.1804 21.8873 65.0948 21.8754C65.0093 21.8634 64.9221 21.8762 64.8436 21.9123C64.7651 21.9484 64.6987 22.0062 64.652 22.0789C64.6054 22.1516 64.5807 22.2362 64.5806 22.3226V23.6774H63.6774V18.7097C63.6767 17.9912 63.391 17.3024 62.883 16.7944C62.375 16.2864 61.6862 16.0007 60.9677 16H51.0323C50.3138 16.0007 49.625 16.2864 49.117 16.7944C48.609 17.3024 48.3233 17.9912 48.3226 18.7097V19.1843C48.1731 19.1726 48.0236 19.1613 47.871 19.1613C46.3139 19.1613 44.8206 19.7798 43.7196 20.8809C42.6185 21.9819 42 23.4752 42 25.0323C42 26.5893 42.6185 28.0826 43.7196 29.1837C44.8206 30.2847 46.3139 30.9032 47.871 30.9032C48.0236 30.9032 48.1731 30.8919 48.3226 30.8802V34.0645H47.4194V32.7097C47.4193 32.6233 47.3946 32.5387 47.348 32.466C47.3013 32.3933 47.2349 32.3355 47.1564 32.2994C47.0779 32.2633 46.9907 32.2505 46.9052 32.2625C46.8196 32.2744 46.7393 32.3107 46.6737 32.3669L43.5125 35.0766C43.463 35.119 43.4234 35.1716 43.3962 35.2307C43.369 35.2899 43.3549 35.3542 43.3549 35.4194C43.3549 35.4845 43.369 35.5488 43.3962 35.608C43.4234 35.6671 43.463 35.7197 43.5125 35.7621L46.6737 38.4718C46.7393 38.528 46.8196 38.5643 46.9052 38.5763C46.9907 38.5882 47.0779 38.5754 47.1564 38.5393C47.2349 38.5032 47.3013 38.4454 47.348 38.3727C47.3946 38.3 47.4193 38.2154 47.4194 38.129V36.7742H48.3226V41.2903C48.3233 42.0088 48.609 42.6976 49.117 43.2056C49.625 43.7136 50.3138 43.9993 51.0323 44H60.9677C61.6862 43.9993 62.375 43.7136 62.883 43.2056C63.391 42.6976 63.6767 42.0088 63.6774 41.2903V40.8157C63.8269 40.8274 63.9764 40.8387 64.129 40.8387C65.6861 40.8387 67.1794 40.2202 68.2804 39.1191C69.3815 38.0181 70 36.5248 70 34.9677C70 33.4107 69.3815 31.9174 68.2804 30.8163C67.1794 29.7153 65.6861 29.0968 64.129 29.0968ZM65.0323 24.5806C65.152 24.5806 65.2669 24.5331 65.3516 24.4484C65.4363 24.3637 65.4839 24.2488 65.4839 24.129V23.3044L67.4994 25.0323L65.4839 26.7601V25.9355C65.4839 25.8157 65.4363 25.7008 65.3516 25.6161C65.2669 25.5315 65.152 25.4839 65.0323 25.4839H57.3548V24.5806H65.0323ZM59.8775 16.9032L58.9743 17.8065H53.0257L52.1225 16.9032H59.8775ZM42.9032 25.0323C42.9032 24.0497 43.1946 23.0893 43.7404 22.2723C44.2863 21.4554 45.0622 20.8187 45.9699 20.4427C46.8776 20.0667 47.8765 19.9683 48.8401 20.16C49.8038 20.3517 50.6889 20.8248 51.3837 21.5195C52.0784 22.2143 52.5516 23.0995 52.7433 24.0631C52.9349 25.0267 52.8366 26.0256 52.4606 26.9333C52.0846 27.8411 51.4478 28.6169 50.6309 29.1628C49.814 29.7086 48.8535 30 47.871 30C46.5539 29.9984 45.2913 29.4746 44.36 28.5433C43.4287 27.612 42.9048 26.3493 42.9032 25.0323ZM46.9677 35.871C46.848 35.871 46.7331 35.9185 46.6484 36.0032C46.5637 36.0879 46.5161 36.2028 46.5161 36.3226V37.1472L44.5006 35.4194L46.5161 33.6915V34.5161C46.5161 34.6359 46.5637 34.7508 46.6484 34.8355C46.7331 34.9202 46.848 34.9677 46.9677 34.9677H54.6452V35.871H46.9677ZM59.1613 43.0968H52.8387V42.6452C52.8387 42.5254 52.8863 42.4105 52.971 42.3258C53.0557 42.2411 53.1705 42.1935 53.2903 42.1935H58.7097C58.8295 42.1935 58.9443 42.2411 59.029 42.3258C59.1137 42.4105 59.1613 42.5254 59.1613 42.6452V43.0968ZM62.7742 41.2903C62.7742 41.7694 62.5839 42.2289 62.2451 42.5677C61.9063 42.9065 61.4468 43.0968 60.9677 43.0968H60.0645V42.6452C60.0645 42.2858 59.9218 41.9412 59.6677 41.6871C59.4136 41.4331 59.069 41.2903 58.7097 41.2903H53.2903C52.931 41.2903 52.5864 41.4331 52.3323 41.6871C52.0782 41.9412 51.9355 42.2858 51.9355 42.6452V43.0968H51.0323C50.5532 43.0968 50.0937 42.9065 49.7549 42.5677C49.4161 42.2289 49.2258 41.7694 49.2258 41.2903V36.7742H55.0968C55.2165 36.7742 55.3314 36.7266 55.4161 36.6419C55.5008 36.5572 55.5484 36.4424 55.5484 36.3226V34.5161C55.5484 34.3964 55.5008 34.2815 55.4161 34.1968C55.3314 34.1121 55.2165 34.0645 55.0968 34.0645H49.2258V30.7393C50.5112 30.4356 51.6565 29.7068 52.476 28.671C53.2956 27.6352 53.7415 26.3531 53.7415 25.0323C53.7415 23.7114 53.2956 22.4293 52.476 21.3935C51.6565 20.3577 50.5112 19.629 49.2258 19.3252V18.7097C49.2273 18.2613 49.3957 17.8296 49.6984 17.4988C50.001 17.1679 50.416 16.9617 50.8625 16.9204L52.5194 18.5774C52.6041 18.6621 52.7189 18.7097 52.8387 18.7097H59.1613C59.2811 18.7097 59.3959 18.6621 59.4806 18.5774L61.1375 16.9204C61.584 16.9617 61.999 17.1679 62.3016 17.4988C62.6043 17.8296 62.7727 18.2613 62.7742 18.7097V23.6774H56.9032C56.7835 23.6774 56.6686 23.725 56.5839 23.8097C56.4992 23.8944 56.4516 24.0093 56.4516 24.129V25.9355C56.4516 26.0553 56.4992 26.1701 56.5839 26.2548C56.6686 26.3395 56.7835 26.3871 56.9032 26.3871H62.7742V29.2607C61.4888 29.5644 60.3435 30.2932 59.524 31.329C58.7044 32.3648 58.2585 33.6469 58.2585 34.9677C58.2585 36.2886 58.7044 37.5707 59.524 38.6065C60.3435 39.6423 61.4888 40.371 62.7742 40.6748V41.2903ZM64.129 39.9355C63.1465 39.9355 62.186 39.6441 61.3691 39.0983C60.5522 38.5524 59.9154 37.7766 59.5394 36.8688C59.1634 35.9611 59.0651 34.9622 59.2567 33.9986C59.4484 33.0349 59.9216 32.1498 60.6163 31.455C61.3111 30.7603 62.1962 30.2871 63.1599 30.0955C64.1235 29.9038 65.1224 30.0022 66.0301 30.3781C66.9378 30.7541 67.7137 31.3909 68.2596 32.2078C68.8054 33.0248 69.0968 33.9852 69.0968 34.9677C69.0952 36.2848 68.5713 37.5475 67.64 38.4788C66.7087 39.41 65.4461 39.9339 64.129 39.9355Z" fill="#34373F"/>
<path d="M54.1943 21.8708H59.6137V22.7741H54.1943V21.8708Z" fill="#34373F"/>
<path d="M52.3867 37.6775H57.8061V38.5807H52.3867V37.6775Z" fill="#34373F"/>
<path d="M56.9033 20.0642H60.5162V20.9674H56.9033V20.0642Z" fill="#34373F"/>
<path d="M55.0967 39.4192H58.7096V40.3224H55.0967V39.4192Z" fill="#34373F"/>
</svg>
